<svg xmlns="http://www.w3.org/2000/svg" width="420" height="420" viewBox="0 0 420 420" style="background:#f5f5f5">
<text x="4" y="14" font-size="10" fill="#666">156 Holes_Bottom_Board.stl</text>
<polygon points="10.0,187.3 10.0,187.3 10.0,232.7" fill="rgb(120,120,120)" stroke="#666" stroke-width="0.5"/>
<polygon points="10.0,232.7 10.0,232.7 10.0,187.3" fill="rgb(120,120,120)" stroke="#666" stroke-width="0.5"/>
<polygon points="410.0,232.7 410.0,187.3 388.8,232.7" fill="rgb(120,120,120)" stroke="#666" stroke-width="0.5"/>
<polygon points="10.0,232.7 388.8,232.7 10.0,187.3" fill="rgb(120,120,120)" stroke="#666" stroke-width="0.5"/>
<polygon points="410.0,232.7 399.7,232.7 400.9,232.7" fill="rgb(220,220,220)" stroke="#666" stroke-width="0.5"/>
<polygon points="410.0,232.7 400.9,232.7 401.4,232.7" fill="rgb(220,220,220)" stroke="#666" stroke-width="0.5"/>
<polygon points="10.0,187.3 388.8,232.7 410.0,187.3" fill="rgb(120,120,120)" stroke="#666" stroke-width="0.5"/>
<polygon points="410.0,232.7 410.0,187.3 410.0,232.7" fill="rgb(120,120,120)" stroke="#666" stroke-width="0.5"/>
<polygon points="397.0,232.7 398.4,232.7 388.8,232.7" fill="rgb(220,220,220)" stroke="#666" stroke-width="0.5"/>
<polygon points="399.7,232.7 410.0,232.7 398.4,232.7" fill="rgb(220,220,220)" stroke="#666" stroke-width="0.5"/>
<polygon points="388.8,232.7 398.4,232.7 410.0,232.7" fill="rgb(220,220,220)" stroke="#666" stroke-width="0.5"/>
<polygon points="410.0,187.3 410.0,187.3 410.0,232.7" fill="rgb(120,120,120)" stroke="#666" stroke-width="0.5"/>
<polygon points="394.0,232.7 394.2,232.7 31.2,232.7" fill="rgb(220,220,220)" stroke="#666" stroke-width="0.5"/>
<polygon points="388.8,232.7 31.2,232.7 394.2,232.7" fill="rgb(220,220,220)" stroke="#666" stroke-width="0.5"/>
<polygon points="395.8,232.7 397.0,232.7 388.8,232.7" fill="rgb(220,220,220)" stroke="#666" stroke-width="0.5"/>
<polygon points="388.8,226.7 31.2,226.7 31.2,205.5" fill="rgb(120,120,120)" stroke="#666" stroke-width="0.5"/>
<polygon points="388.8,226.7 31.2,205.5 388.8,205.5" fill="rgb(120,120,120)" stroke="#666" stroke-width="0.5"/>
<polygon points="10.0,232.7 10.0,187.3 31.2,205.5" fill="rgb(120,120,120)" stroke="#666" stroke-width="0.5"/>
<polygon points="31.2,232.7 10.0,232.7 31.2,226.7" fill="rgb(120,120,120)" stroke="#666" stroke-width="0.5"/>
<polygon points="31.2,226.7 10.0,232.7 31.2,205.5" fill="rgb(120,120,120)" stroke="#666" stroke-width="0.5"/>
<polygon points="31.2,187.3 31.2,205.5 10.0,187.3" fill="rgb(120,120,120)" stroke="#666" stroke-width="0.5"/>
<polygon points="410.0,187.3 410.0,232.7 388.8,205.5" fill="rgb(120,120,120)" stroke="#666" stroke-width="0.5"/>
<polygon points="388.8,232.7 388.8,226.7 410.0,232.7" fill="rgb(120,120,120)" stroke="#666" stroke-width="0.5"/>
<polygon points="388.8,226.7 388.8,205.5 410.0,232.7" fill="rgb(120,120,120)" stroke="#666" stroke-width="0.5"/>
<polygon points="388.8,187.3 410.0,187.3 388.8,205.5" fill="rgb(120,120,120)" stroke="#666" stroke-width="0.5"/>
<polygon points="17.5,187.3 10.0,187.3 18.1,187.3" fill="rgb(220,220,220)" stroke="#666" stroke-width="0.5"/>
<polygon points="18.6,187.3 18.1,187.3 10.0,187.3" fill="rgb(220,220,220)" stroke="#666" stroke-width="0.5"/>
<polygon points="388.8,232.7 397.0,232.7 395.8,232.7" fill="rgb(220,220,220)" stroke="#666" stroke-width="0.5"/>
<polygon points="388.8,232.7 395.8,232.7 395.3,232.7" fill="rgb(220,220,220)" stroke="#666" stroke-width="0.5"/>
<polygon points="17.3,187.3 10.0,187.3 17.5,187.3" fill="rgb(220,220,220)" stroke="#666" stroke-width="0.5"/>
<polygon points="20.3,187.3 17.3,187.3 19.1,187.3" fill="rgb(220,220,220)" stroke="#666" stroke-width="0.5"/>
<polygon points="19.1,187.3 17.3,187.3 18.1,187.3" fill="rgb(220,220,220)" stroke="#666" stroke-width="0.5"/>
<polygon points="399.7,232.7 402.8,232.7 400.9,232.7" fill="rgb(220,220,220)" stroke="#666" stroke-width="0.5"/>
<polygon points="24.2,187.3 31.2,187.3 23.0,187.3" fill="rgb(220,220,220)" stroke="#666" stroke-width="0.5"/>
<polygon points="401.4,232.7 401.9,232.7 410.0,232.7" fill="rgb(220,220,220)" stroke="#666" stroke-width="0.5"/>
<polygon points="21.6,187.3 23.0,187.3 17.3,187.3" fill="rgb(220,220,220)" stroke="#666" stroke-width="0.5"/>
<polygon points="24.7,187.3 31.2,187.3 24.2,187.3" fill="rgb(220,220,220)" stroke="#666" stroke-width="0.5"/>
<polygon points="21.6,187.3 17.3,187.3 20.3,187.3" fill="rgb(220,220,220)" stroke="#666" stroke-width="0.5"/>
<polygon points="401.9,232.7 400.9,232.7 402.8,232.7" fill="rgb(220,220,220)" stroke="#666" stroke-width="0.5"/>
<polygon points="398.4,232.7 402.8,232.7 399.7,232.7" fill="rgb(220,220,220)" stroke="#666" stroke-width="0.5"/>
<polygon points="388.8,232.7 402.8,232.7 397.0,232.7" fill="rgb(220,220,220)" stroke="#666" stroke-width="0.5"/>
<polygon points="17.3,187.3 23.0,187.3 31.2,187.3" fill="rgb(220,220,220)" stroke="#666" stroke-width="0.5"/>
<polygon points="17.5,187.3 17.3,187.3 10.0,187.3" fill="rgb(220,220,220)" stroke="#666" stroke-width="0.5"/>
<polygon points="18.1,187.3 17.3,187.3 17.5,187.3" fill="rgb(220,220,220)" stroke="#666" stroke-width="0.5"/>
<polygon points="10.0,187.3 10.0,187.3 17.3,187.3" fill="rgb(220,220,220)" stroke="#666" stroke-width="0.5"/>
<polygon points="17.3,187.3 17.5,187.3 10.0,187.3" fill="rgb(220,220,220)" stroke="#666" stroke-width="0.5"/>
<polygon points="410.0,232.7 401.9,232.7 402.5,232.7" fill="rgb(220,220,220)" stroke="#666" stroke-width="0.5"/>
<polygon points="410.0,232.7 402.5,232.7 402.8,232.7" fill="rgb(220,220,220)" stroke="#666" stroke-width="0.5"/>
<polygon points="402.8,232.7 402.5,232.7 410.0,232.7" fill="rgb(220,220,220)" stroke="#666" stroke-width="0.5"/>
<polygon points="401.9,232.7 402.8,232.7 402.5,232.7" fill="rgb(220,220,220)" stroke="#666" stroke-width="0.5"/>
<polygon points="410.0,232.7 402.5,232.7 402.8,232.7" fill="rgb(220,220,220)" stroke="#666" stroke-width="0.5"/>
<polygon points="410.0,232.7 402.8,232.7 410.0,232.7" fill="rgb(220,220,220)" stroke="#666" stroke-width="0.5"/>
<polygon points="398.4,232.7 397.0,232.7 402.8,232.7" fill="rgb(220,220,220)" stroke="#666" stroke-width="0.5"/>
<polygon points="18.6,187.3 10.0,187.3 19.1,187.3" fill="rgb(220,220,220)" stroke="#666" stroke-width="0.5"/>
<polygon points="388.8,187.3 31.2,187.3 25.8,187.3" fill="rgb(220,220,220)" stroke="#666" stroke-width="0.5"/>
<polygon points="31.2,205.5 31.2,205.5 388.8,205.5" fill="rgb(220,220,220)" stroke="#666" stroke-width="0.5"/>
<polygon points="31.2,205.5 388.8,205.5 388.8,205.5" fill="rgb(220,220,220)" stroke="#666" stroke-width="0.5"/>
<polygon points="25.8,187.3 25.2,187.3 388.8,187.3" fill="rgb(220,220,220)" stroke="#666" stroke-width="0.5"/>
<polygon points="31.2,226.7 388.8,226.7 388.8,226.7" fill="rgb(220,220,220)" stroke="#666" stroke-width="0.5"/>
<polygon points="31.2,226.7 388.8,226.7 31.2,226.7" fill="rgb(220,220,220)" stroke="#666" stroke-width="0.5"/>
<polygon points="388.8,232.7 31.2,232.7 31.2,226.7" fill="rgb(120,120,120)" stroke="#666" stroke-width="0.5"/>
<polygon points="388.8,232.7 31.2,226.7 388.8,226.7" fill="rgb(120,120,120)" stroke="#666" stroke-width="0.5"/>
<polygon points="24.2,187.3 394.8,187.3 25.2,187.3" fill="rgb(220,220,220)" stroke="#666" stroke-width="0.5"/>
<polygon points="21.6,187.3 10.0,187.3 23.0,187.3" fill="rgb(220,220,220)" stroke="#666" stroke-width="0.5"/>
<polygon points="24.2,187.3 23.0,187.3 395.8,187.3" fill="rgb(220,220,220)" stroke="#666" stroke-width="0.5"/>
<polygon points="26.0,187.3 388.8,187.3 25.8,187.3" fill="rgb(220,220,220)" stroke="#666" stroke-width="0.5"/>
<polygon points="25.8,187.3 388.8,187.3 26.0,187.3" fill="rgb(220,220,220)" stroke="#666" stroke-width="0.5"/>
<polygon points="25.2,187.3 25.8,187.3 31.2,187.3" fill="rgb(220,220,220)" stroke="#666" stroke-width="0.5"/>
<polygon points="24.7,187.3 25.2,187.3 31.2,187.3" fill="rgb(220,220,220)" stroke="#666" stroke-width="0.5"/>
<polygon points="10.0,187.3 395.8,187.3 23.0,187.3" fill="rgb(220,220,220)" stroke="#666" stroke-width="0.5"/>
<polygon points="21.6,187.3 20.3,187.3 10.0,187.3" fill="rgb(220,220,220)" stroke="#666" stroke-width="0.5"/>
<polygon points="19.1,187.3 10.0,187.3 20.3,187.3" fill="rgb(220,220,220)" stroke="#666" stroke-width="0.5"/>
<polygon points="394.2,187.3 25.2,187.3 394.8,187.3" fill="rgb(220,220,220)" stroke="#666" stroke-width="0.5"/>
<polygon points="388.8,187.3 394.8,187.3 395.3,187.3" fill="rgb(220,220,220)" stroke="#666" stroke-width="0.5"/>
<polygon points="399.7,187.3 410.0,187.3 400.9,187.3" fill="rgb(220,220,220)" stroke="#666" stroke-width="0.5"/>
<polygon points="401.4,187.3 400.9,187.3 410.0,187.3" fill="rgb(220,220,220)" stroke="#666" stroke-width="0.5"/>
<polygon points="398.4,187.3 397.0,187.3 410.0,187.3" fill="rgb(220,220,220)" stroke="#666" stroke-width="0.5"/>
<polygon points="10.0,187.3 410.0,187.3 397.0,187.3" fill="rgb(220,220,220)" stroke="#666" stroke-width="0.5"/>
<polygon points="395.8,187.3 10.0,187.3 397.0,187.3" fill="rgb(220,220,220)" stroke="#666" stroke-width="0.5"/>
<polygon points="394.8,187.3 24.2,187.3 395.8,187.3" fill="rgb(220,220,220)" stroke="#666" stroke-width="0.5"/>
<polygon points="399.7,187.3 398.4,187.3 410.0,187.3" fill="rgb(220,220,220)" stroke="#666" stroke-width="0.5"/>
<polygon points="394.2,187.3 25.2,187.3 394.0,187.3" fill="rgb(220,220,220)" stroke="#666" stroke-width="0.5"/>
<polygon points="388.8,187.3 25.2,187.3 394.2,187.3" fill="rgb(220,220,220)" stroke="#666" stroke-width="0.5"/>
<polygon points="394.8,187.3 388.8,187.3 394.2,187.3" fill="rgb(220,220,220)" stroke="#666" stroke-width="0.5"/>
<polygon points="394.0,187.3 25.2,187.3 394.2,187.3" fill="rgb(220,220,220)" stroke="#666" stroke-width="0.5"/>
<polygon points="21.6,187.3 17.3,187.3 23.0,187.3" fill="rgb(220,220,220)" stroke="#666" stroke-width="0.5"/>
<polygon points="23.0,187.3 17.3,187.3 24.2,187.3" fill="rgb(220,220,220)" stroke="#666" stroke-width="0.5"/>
<polygon points="24.2,187.3 25.2,187.3 31.2,187.3" fill="rgb(220,220,220)" stroke="#666" stroke-width="0.5"/>
<polygon points="21.6,232.7 23.0,232.7 21.6,187.3" fill="rgb(120,120,120)" stroke="#666" stroke-width="0.5"/>
<polygon points="31.2,187.3 25.2,187.3 25.8,187.3" fill="rgb(220,220,220)" stroke="#666" stroke-width="0.5"/>
<polygon points="388.8,232.7 394.2,232.7 31.2,232.7" fill="rgb(220,220,220)" stroke="#666" stroke-width="0.5"/>
<polygon points="31.2,226.7 31.2,232.7 31.2,232.7" fill="rgb(120,120,120)" stroke="#666" stroke-width="0.5"/>
<polygon points="19.1,187.3 10.0,187.3 18.1,187.3" fill="rgb(220,220,220)" stroke="#666" stroke-width="0.5"/>
<polygon points="17.5,187.3 18.1,187.3 10.0,187.3" fill="rgb(220,220,220)" stroke="#666" stroke-width="0.5"/>
<polygon points="31.2,232.7 31.2,232.7 31.2,226.7" fill="rgb(120,120,120)" stroke="#666" stroke-width="0.5"/>
<polygon points="31.2,226.7 31.2,226.7 31.2,232.7" fill="rgb(120,120,120)" stroke="#666" stroke-width="0.5"/>
<polygon points="31.2,187.3 10.0,187.3 21.6,187.3" fill="rgb(220,220,220)" stroke="#666" stroke-width="0.5"/>
<polygon points="23.0,187.3 31.2,187.3 21.6,187.3" fill="rgb(220,220,220)" stroke="#666" stroke-width="0.5"/>
<polygon points="24.2,187.3 31.2,187.3 23.0,187.3" fill="rgb(220,220,220)" stroke="#666" stroke-width="0.5"/>
<polygon points="25.8,187.3 31.2,187.3 31.2,187.3" fill="rgb(220,220,220)" stroke="#666" stroke-width="0.5"/>
<polygon points="20.3,187.3 21.6,187.3 10.0,187.3" fill="rgb(220,220,220)" stroke="#666" stroke-width="0.5"/>
<polygon points="19.1,187.3 20.3,187.3 10.0,187.3" fill="rgb(220,220,220)" stroke="#666" stroke-width="0.5"/>
<polygon points="26.0,187.3 31.2,187.3 25.8,187.3" fill="rgb(220,220,220)" stroke="#666" stroke-width="0.5"/>
<polygon points="25.8,187.3 31.2,187.3 26.0,187.3" fill="rgb(220,220,220)" stroke="#666" stroke-width="0.5"/>
<polygon points="25.2,187.3 24.2,187.3 31.2,187.3" fill="rgb(220,220,220)" stroke="#666" stroke-width="0.5"/>
<polygon points="25.8,232.7 31.2,232.7 25.2,232.7" fill="rgb(220,220,220)" stroke="#666" stroke-width="0.5"/>
<polygon points="17.3,187.3 31.2,187.3 24.2,187.3" fill="rgb(220,220,220)" stroke="#666" stroke-width="0.5"/>
<polygon points="17.3,187.3 21.6,187.3 20.3,187.3" fill="rgb(220,220,220)" stroke="#666" stroke-width="0.5"/>
<polygon points="19.1,187.3 17.3,187.3 20.3,187.3" fill="rgb(220,220,220)" stroke="#666" stroke-width="0.5"/>
<polygon points="18.1,187.3 17.3,187.3 19.1,187.3" fill="rgb(220,220,220)" stroke="#666" stroke-width="0.5"/>
<polygon points="17.5,187.3 17.3,187.3 18.1,187.3" fill="rgb(220,220,220)" stroke="#666" stroke-width="0.5"/>
<polygon points="25.8,187.3 25.2,187.3 31.2,187.3" fill="rgb(220,220,220)" stroke="#666" stroke-width="0.5"/>
<polygon points="31.2,187.3 31.2,187.3 17.3,187.3" fill="rgb(220,220,220)" stroke="#666" stroke-width="0.5"/>
<polygon points="31.2,232.7 17.3,232.7 24.2,232.7" fill="rgb(220,220,220)" stroke="#666" stroke-width="0.5"/>
<polygon points="17.5,187.3 17.3,187.3 17.3,187.3" fill="rgb(220,220,220)" stroke="#666" stroke-width="0.5"/>
<polygon points="17.5,187.3 10.0,187.3 17.3,187.3" fill="rgb(220,220,220)" stroke="#666" stroke-width="0.5"/>
<polygon points="17.3,187.3 17.3,187.3 10.0,187.3" fill="rgb(220,220,220)" stroke="#666" stroke-width="0.5"/>
<polygon points="401.9,187.3 402.8,187.3 402.5,187.3" fill="rgb(220,220,220)" stroke="#666" stroke-width="0.5"/>
<polygon points="17.5,232.7 18.1,232.7 17.3,232.7" fill="rgb(220,220,220)" stroke="#666" stroke-width="0.5"/>
<polygon points="400.9,187.3 402.8,187.3 401.9,187.3" fill="rgb(220,220,220)" stroke="#666" stroke-width="0.5"/>
<polygon points="399.7,187.3 402.8,187.3 400.9,187.3" fill="rgb(220,220,220)" stroke="#666" stroke-width="0.5"/>
<polygon points="398.4,187.3 402.8,187.3 399.7,187.3" fill="rgb(220,220,220)" stroke="#666" stroke-width="0.5"/>
<polygon points="25.2,232.7 31.2,232.7 25.8,232.7" fill="rgb(220,220,220)" stroke="#666" stroke-width="0.5"/>
<polygon points="24.2,232.7 24.2,187.3 25.2,187.3" fill="rgb(120,120,120)" stroke="#666" stroke-width="0.5"/>
<polygon points="394.2,187.3 402.8,187.3 394.8,187.3" fill="rgb(220,220,220)" stroke="#666" stroke-width="0.5"/>
<polygon points="17.3,232.7 17.5,232.7 17.3,232.7" fill="rgb(220,220,220)" stroke="#666" stroke-width="0.5"/>
<polygon points="23.0,187.3 24.2,187.3 23.0,232.7" fill="rgb(120,120,120)" stroke="#666" stroke-width="0.5"/>
<polygon points="19.1,232.7 10.0,232.7 20.3,232.7" fill="rgb(220,220,220)" stroke="#666" stroke-width="0.5"/>
<polygon points="31.2,232.7 25.2,232.7 24.2,232.7" fill="rgb(220,220,220)" stroke="#666" stroke-width="0.5"/>
<polygon points="31.2,232.7 24.2,232.7 23.0,232.7" fill="rgb(220,220,220)" stroke="#666" stroke-width="0.5"/>
<polygon points="31.2,232.7 23.0,232.7 21.6,232.7" fill="rgb(220,220,220)" stroke="#666" stroke-width="0.5"/>
<polygon points="20.3,232.7 10.0,232.7 21.6,232.7" fill="rgb(220,220,220)" stroke="#666" stroke-width="0.5"/>
<polygon points="31.2,232.7 21.6,232.7 10.0,232.7" fill="rgb(220,220,220)" stroke="#666" stroke-width="0.5"/>
<polygon points="402.8,187.3 402.5,187.3 402.8,187.3" fill="rgb(220,220,220)" stroke="#666" stroke-width="0.5"/>
<polygon points="23.0,232.7 24.2,232.7 17.3,232.7" fill="rgb(220,220,220)" stroke="#666" stroke-width="0.5"/>
<polygon points="24.2,232.7 25.2,232.7 31.2,232.7" fill="rgb(220,220,220)" stroke="#666" stroke-width="0.5"/>
<polygon points="31.2,232.7 25.8,232.7 26.0,232.7" fill="rgb(220,220,220)" stroke="#666" stroke-width="0.5"/>
<polygon points="26.0,232.7 25.8,232.7 31.2,232.7" fill="rgb(220,220,220)" stroke="#666" stroke-width="0.5"/>
<polygon points="31.2,232.7 25.8,232.7 31.2,232.7" fill="rgb(220,220,220)" stroke="#666" stroke-width="0.5"/>
<polygon points="18.1,232.7 19.1,232.7 17.3,232.7" fill="rgb(220,220,220)" stroke="#666" stroke-width="0.5"/>
<polygon points="17.3,232.7 19.1,232.7 20.3,232.7" fill="rgb(220,220,220)" stroke="#666" stroke-width="0.5"/>
<polygon points="17.3,232.7 20.3,232.7 21.6,232.7" fill="rgb(220,220,220)" stroke="#666" stroke-width="0.5"/>
<polygon points="21.6,232.7 23.0,232.7 17.3,232.7" fill="rgb(220,220,220)" stroke="#666" stroke-width="0.5"/>
<polygon points="31.2,232.7 17.3,232.7 31.2,232.7" fill="rgb(220,220,220)" stroke="#666" stroke-width="0.5"/>
<polygon points="18.1,232.7 10.0,232.7 19.1,232.7" fill="rgb(220,220,220)" stroke="#666" stroke-width="0.5"/>
<polygon points="10.0,232.7 18.1,232.7 17.5,232.7" fill="rgb(220,220,220)" stroke="#666" stroke-width="0.5"/>
<polygon points="10.0,232.7 17.5,232.7 17.3,232.7" fill="rgb(220,220,220)" stroke="#666" stroke-width="0.5"/>
<polygon points="10.0,232.7 17.3,232.7 17.3,232.7" fill="rgb(220,220,220)" stroke="#666" stroke-width="0.5"/>
<polygon points="395.8,187.3 388.8,187.3 394.8,187.3" fill="rgb(220,220,220)" stroke="#666" stroke-width="0.5"/>
<polygon points="398.4,187.3 388.8,187.3 397.0,187.3" fill="rgb(220,220,220)" stroke="#666" stroke-width="0.5"/>
<polygon points="397.0,187.3 388.8,187.3 395.8,187.3" fill="rgb(220,220,220)" stroke="#666" stroke-width="0.5"/>
<polygon points="399.7,187.3 410.0,187.3 398.4,187.3" fill="rgb(220,220,220)" stroke="#666" stroke-width="0.5"/>
<polygon points="400.9,187.3 410.0,187.3 399.7,187.3" fill="rgb(220,220,220)" stroke="#666" stroke-width="0.5"/>
<polygon points="401.9,187.3 410.0,187.3 400.9,187.3" fill="rgb(220,220,220)" stroke="#666" stroke-width="0.5"/>
<polygon points="402.5,187.3 410.0,187.3 401.9,187.3" fill="rgb(220,220,220)" stroke="#666" stroke-width="0.5"/>
<polygon points="388.8,187.3 398.4,187.3 410.0,187.3" fill="rgb(220,220,220)" stroke="#666" stroke-width="0.5"/>
<polygon points="410.0,187.3 402.5,187.3 402.8,187.3" fill="rgb(220,220,220)" stroke="#666" stroke-width="0.5"/>
<polygon points="402.8,187.3 410.0,187.3 402.8,187.3" fill="rgb(220,220,220)" stroke="#666" stroke-width="0.5"/>
<polygon points="402.8,187.3 398.4,187.3 397.0,187.3" fill="rgb(220,220,220)" stroke="#666" stroke-width="0.5"/>
<polygon points="402.8,187.3 397.0,187.3 395.8,187.3" fill="rgb(220,220,220)" stroke="#666" stroke-width="0.5"/>
<polygon points="395.8,187.3 394.8,187.3 402.8,187.3" fill="rgb(220,220,220)" stroke="#666" stroke-width="0.5"/>
<polygon points="394.0,187.3 388.8,187.3 394.2,187.3" fill="rgb(220,220,220)" stroke="#666" stroke-width="0.5"/>
<polygon points="402.8,187.3 394.2,187.3 388.8,187.3" fill="rgb(220,220,220)" stroke="#666" stroke-width="0.5"/>
<polygon points="394.2,187.3 388.8,187.3 394.0,187.3" fill="rgb(220,220,220)" stroke="#666" stroke-width="0.5"/>
<polygon points="394.8,187.3 388.8,187.3 394.2,187.3" fill="rgb(220,220,220)" stroke="#666" stroke-width="0.5"/>
<polygon points="388.8,187.3 394.0,187.3 388.8,187.3" fill="rgb(220,220,220)" stroke="#666" stroke-width="0.5"/>
<polygon points="31.2,187.3 388.8,187.3 388.8,205.5" fill="rgb(120,120,120)" stroke="#666" stroke-width="0.5"/>
<polygon points="31.2,187.3 388.8,205.5 31.2,205.5" fill="rgb(120,120,120)" stroke="#666" stroke-width="0.5"/>
<polygon points="31.2,187.3 31.2,187.3 31.2,205.5" fill="rgb(120,120,120)" stroke="#666" stroke-width="0.5"/>
<polygon points="31.2,205.5 31.2,205.5 31.2,187.3" fill="rgb(120,120,120)" stroke="#666" stroke-width="0.5"/>
<polygon points="31.2,187.3 31.2,205.5 31.2,187.3" fill="rgb(120,120,120)" stroke="#666" stroke-width="0.5"/>
<polygon points="25.8,232.7 25.8,187.3 26.0,187.3" fill="rgb(120,120,120)" stroke="#666" stroke-width="0.5"/>
<polygon points="18.1,187.3 18.1,232.7 19.1,187.3" fill="rgb(120,120,120)" stroke="#666" stroke-width="0.5"/>
<polygon points="20.3,187.3 19.1,187.3 20.3,232.7" fill="rgb(120,120,120)" stroke="#666" stroke-width="0.5"/>
<polygon points="24.2,232.7 23.0,232.7 24.2,187.3" fill="rgb(120,120,120)" stroke="#666" stroke-width="0.5"/>
<polygon points="23.0,187.3 23.0,232.7 21.6,187.3" fill="rgb(120,120,120)" stroke="#666" stroke-width="0.5"/>
<polygon points="18.1,187.3 18.1,232.7 17.5,187.3" fill="rgb(120,120,120)" stroke="#666" stroke-width="0.5"/>
<polygon points="388.8,232.7 388.8,232.7 388.8,226.7" fill="rgb(120,120,120)" stroke="#666" stroke-width="0.5"/>
<polygon points="388.8,187.3 388.8,187.3 388.8,205.5" fill="rgb(120,120,120)" stroke="#666" stroke-width="0.5"/>
<polygon points="388.8,205.5 388.8,205.5 388.8,187.3" fill="rgb(120,120,120)" stroke="#666" stroke-width="0.5"/>
<polygon points="388.8,226.7 388.8,226.7 388.8,232.7" fill="rgb(120,120,120)" stroke="#666" stroke-width="0.5"/>
<polygon points="10.0,232.7 17.5,232.7 18.1,232.7" fill="rgb(220,220,220)" stroke="#666" stroke-width="0.5"/>
<polygon points="10.0,232.7 18.1,232.7 18.6,232.7" fill="rgb(220,220,220)" stroke="#666" stroke-width="0.5"/>
<polygon points="402.8,187.3 388.8,187.3 397.0,187.3" fill="rgb(220,220,220)" stroke="#666" stroke-width="0.5"/>
<polygon points="395.3,187.3 395.8,187.3 388.8,187.3" fill="rgb(220,220,220)" stroke="#666" stroke-width="0.5"/>
<polygon points="17.5,232.7 17.3,187.3 17.5,187.3" fill="rgb(120,120,120)" stroke="#666" stroke-width="0.5"/>
<polygon points="25.8,187.3 25.2,187.3 25.8,232.7" fill="rgb(120,120,120)" stroke="#666" stroke-width="0.5"/>
<polygon points="25.8,232.7 26.0,232.7 25.8,187.3" fill="rgb(120,120,120)" stroke="#666" stroke-width="0.5"/>
<polygon points="402.8,187.3 410.0,187.3 402.5,187.3" fill="rgb(220,220,220)" stroke="#666" stroke-width="0.5"/>
<polygon points="31.2,232.7 24.2,232.7 23.0,232.7" fill="rgb(220,220,220)" stroke="#666" stroke-width="0.5"/>
<polygon points="24.7,232.7 24.2,232.7 31.2,232.7" fill="rgb(220,220,220)" stroke="#666" stroke-width="0.5"/>
<polygon points="19.1,232.7 20.3,232.7 19.1,187.3" fill="rgb(120,120,120)" stroke="#666" stroke-width="0.5"/>
<polygon points="410.0,187.3 401.9,187.3 401.4,187.3" fill="rgb(220,220,220)" stroke="#666" stroke-width="0.5"/>
<polygon points="20.3,187.3 20.3,232.7 21.6,187.3" fill="rgb(120,120,120)" stroke="#666" stroke-width="0.5"/>
<polygon points="21.6,232.7 17.3,232.7 23.0,232.7" fill="rgb(220,220,220)" stroke="#666" stroke-width="0.5"/>
<polygon points="23.0,232.7 17.3,232.7 31.2,232.7" fill="rgb(220,220,220)" stroke="#666" stroke-width="0.5"/>
<polygon points="19.1,232.7 18.1,232.7 17.3,232.7" fill="rgb(220,220,220)" stroke="#666" stroke-width="0.5"/>
<polygon points="401.9,187.3 402.8,187.3 400.9,187.3" fill="rgb(220,220,220)" stroke="#666" stroke-width="0.5"/>
<polygon points="399.7,187.3 400.9,187.3 402.8,187.3" fill="rgb(220,220,220)" stroke="#666" stroke-width="0.5"/>
<polygon points="20.3,232.7 19.1,232.7 17.3,232.7" fill="rgb(220,220,220)" stroke="#666" stroke-width="0.5"/>
<polygon points="21.6,232.7 20.3,232.7 17.3,232.7" fill="rgb(220,220,220)" stroke="#666" stroke-width="0.5"/>
<polygon points="25.8,232.7 25.2,232.7 25.8,187.3" fill="rgb(120,120,120)" stroke="#666" stroke-width="0.5"/>
<polygon points="398.4,187.3 399.7,187.3 402.8,187.3" fill="rgb(220,220,220)" stroke="#666" stroke-width="0.5"/>
<polygon points="395.8,187.3 397.0,187.3 388.8,187.3" fill="rgb(220,220,220)" stroke="#666" stroke-width="0.5"/>
<polygon points="24.2,187.3 24.7,232.7 24.7,187.3" fill="rgb(120,120,120)" stroke="#666" stroke-width="0.5"/>
<polygon points="397.0,187.3 398.4,187.3 402.8,187.3" fill="rgb(220,220,220)" stroke="#666" stroke-width="0.5"/>
<polygon points="25.8,232.7 25.8,187.3 25.2,232.7" fill="rgb(120,120,120)" stroke="#666" stroke-width="0.5"/>
<polygon points="25.2,187.3 25.2,232.7 25.8,187.3" fill="rgb(120,120,120)" stroke="#666" stroke-width="0.5"/>
<polygon points="10.0,232.7 10.0,232.7 17.3,232.7" fill="rgb(220,220,220)" stroke="#666" stroke-width="0.5"/>
<polygon points="18.1,232.7 17.5,232.7 17.3,232.7" fill="rgb(220,220,220)" stroke="#666" stroke-width="0.5"/>
<polygon points="10.0,232.7 17.3,232.7 17.5,232.7" fill="rgb(220,220,220)" stroke="#666" stroke-width="0.5"/>
<polygon points="10.0,232.7 17.5,232.7 17.3,232.7" fill="rgb(220,220,220)" stroke="#666" stroke-width="0.5"/>
<polygon points="10.0,232.7 17.3,232.7 17.5,232.7" fill="rgb(220,220,220)" stroke="#666" stroke-width="0.5"/>
<polygon points="410.0,187.3 402.8,187.3 402.5,187.3" fill="rgb(220,220,220)" stroke="#666" stroke-width="0.5"/>
<polygon points="402.5,187.3 410.0,187.3 402.8,187.3" fill="rgb(220,220,220)" stroke="#666" stroke-width="0.5"/>
<polygon points="401.9,187.3 410.0,187.3 402.5,187.3" fill="rgb(220,220,220)" stroke="#666" stroke-width="0.5"/>
<polygon points="401.9,187.3 402.5,187.3 402.8,187.3" fill="rgb(220,220,220)" stroke="#666" stroke-width="0.5"/>
<polygon points="410.0,187.3 402.8,187.3 410.0,187.3" fill="rgb(220,220,220)" stroke="#666" stroke-width="0.5"/>
<polygon points="25.8,187.3 25.8,232.7 26.0,232.7" fill="rgb(120,120,120)" stroke="#666" stroke-width="0.5"/>
<polygon points="21.6,232.7 21.6,187.3 20.3,232.7" fill="rgb(120,120,120)" stroke="#666" stroke-width="0.5"/>
<polygon points="402.8,232.7 401.9,232.7 402.5,232.7" fill="rgb(220,220,220)" stroke="#666" stroke-width="0.5"/>
<polygon points="402.8,232.7 402.5,232.7 402.8,232.7" fill="rgb(220,220,220)" stroke="#666" stroke-width="0.5"/>
<polygon points="25.2,232.7 25.2,187.3 25.8,232.7" fill="rgb(120,120,120)" stroke="#666" stroke-width="0.5"/>
<polygon points="400.9,232.7 401.9,232.7 402.8,232.7" fill="rgb(220,220,220)" stroke="#666" stroke-width="0.5"/>
<polygon points="400.9,232.7 402.8,232.7 399.7,232.7" fill="rgb(220,220,220)" stroke="#666" stroke-width="0.5"/>
<polygon points="21.6,232.7 21.6,187.3 23.0,187.3" fill="rgb(120,120,120)" stroke="#666" stroke-width="0.5"/>
<polygon points="394.8,232.7 395.8,232.7 402.8,232.7" fill="rgb(220,220,220)" stroke="#666" stroke-width="0.5"/>
<polygon points="394.2,232.7 394.8,232.7 402.8,232.7" fill="rgb(220,220,220)" stroke="#666" stroke-width="0.5"/>
<polygon points="394.8,187.3 395.3,232.7 395.3,187.3" fill="rgb(120,120,120)" stroke="#666" stroke-width="0.5"/>
<polygon points="388.8,232.7 410.0,232.7 398.4,232.7" fill="rgb(220,220,220)" stroke="#666" stroke-width="0.5"/>
<polygon points="21.6,232.7 21.6,187.3 20.3,187.3" fill="rgb(120,120,120)" stroke="#666" stroke-width="0.5"/>
<polygon points="400.9,232.7 410.0,232.7 401.9,232.7" fill="rgb(220,220,220)" stroke="#666" stroke-width="0.5"/>
<polygon points="410.0,232.7 402.5,232.7 401.9,232.7" fill="rgb(220,220,220)" stroke="#666" stroke-width="0.5"/>
<polygon points="21.6,187.3 21.6,232.7 20.3,187.3" fill="rgb(120,120,120)" stroke="#666" stroke-width="0.5"/>
<polygon points="20.3,232.7 19.1,232.7 20.3,187.3" fill="rgb(120,120,120)" stroke="#666" stroke-width="0.5"/>
<polygon points="402.8,232.7 388.8,232.7 394.2,232.7" fill="rgb(220,220,220)" stroke="#666" stroke-width="0.5"/>
<polygon points="25.2,187.3 24.2,187.3 25.2,232.7" fill="rgb(120,120,120)" stroke="#666" stroke-width="0.5"/>
<polygon points="17.3,187.3 17.5,232.7 17.3,232.7" fill="rgb(120,120,120)" stroke="#666" stroke-width="0.5"/>
<polygon points="395.8,232.7 388.8,232.7 397.0,232.7" fill="rgb(220,220,220)" stroke="#666" stroke-width="0.5"/>
<polygon points="400.9,232.7 399.7,232.7 410.0,232.7" fill="rgb(220,220,220)" stroke="#666" stroke-width="0.5"/>
<polygon points="399.7,232.7 398.4,232.7 410.0,232.7" fill="rgb(220,220,220)" stroke="#666" stroke-width="0.5"/>
<polygon points="397.0,232.7 388.8,232.7 398.4,232.7" fill="rgb(220,220,220)" stroke="#666" stroke-width="0.5"/>
<polygon points="410.0,232.7 402.8,232.7 402.8,232.7" fill="rgb(220,220,220)" stroke="#666" stroke-width="0.5"/>
<polygon points="410.0,232.7 402.8,232.7 402.5,232.7" fill="rgb(220,220,220)" stroke="#666" stroke-width="0.5"/>
<polygon points="397.0,232.7 402.8,232.7 395.8,232.7" fill="rgb(220,220,220)" stroke="#666" stroke-width="0.5"/>
<polygon points="402.8,232.7 397.0,232.7 398.4,232.7" fill="rgb(220,220,220)" stroke="#666" stroke-width="0.5"/>
<polygon points="398.4,232.7 399.7,232.7 402.8,232.7" fill="rgb(220,220,220)" stroke="#666" stroke-width="0.5"/>
<polygon points="18.1,187.3 18.6,187.3 18.6,232.7" fill="rgb(120,120,120)" stroke="#666" stroke-width="0.5"/>
<polygon points="394.8,232.7 388.8,232.7 395.8,232.7" fill="rgb(220,220,220)" stroke="#666" stroke-width="0.5"/>
<polygon points="388.8,232.7 394.8,232.7 394.2,232.7" fill="rgb(220,220,220)" stroke="#666" stroke-width="0.5"/>
<polygon points="388.8,232.7 394.2,232.7 394.0,232.7" fill="rgb(220,220,220)" stroke="#666" stroke-width="0.5"/>
<polygon points="394.0,232.7 394.2,232.7 388.8,232.7" fill="rgb(220,220,220)" stroke="#666" stroke-width="0.5"/>
<polygon points="388.8,232.7 394.0,232.7 388.8,232.7" fill="rgb(220,220,220)" stroke="#666" stroke-width="0.5"/>
<polygon points="401.9,232.7 401.4,232.7 401.9,187.3" fill="rgb(120,120,120)" stroke="#666" stroke-width="0.5"/>
<polygon points="397.0,187.3 397.0,232.7 398.4,187.3" fill="rgb(120,120,120)" stroke="#666" stroke-width="0.5"/>
<polygon points="25.2,232.7 24.7,187.3 24.7,232.7" fill="rgb(120,120,120)" stroke="#666" stroke-width="0.5"/>
<polygon points="394.8,187.3 394.2,232.7 394.8,232.7" fill="rgb(120,120,120)" stroke="#666" stroke-width="0.5"/>
<polygon points="18.1,232.7 18.1,187.3 18.6,232.7" fill="rgb(120,120,120)" stroke="#666" stroke-width="0.5"/>
<polygon points="394.8,187.3 394.8,232.7 395.8,187.3" fill="rgb(120,120,120)" stroke="#666" stroke-width="0.5"/>
<polygon points="23.0,187.3 24.2,232.7 23.0,232.7" fill="rgb(120,120,120)" stroke="#666" stroke-width="0.5"/>
<polygon points="24.2,187.3 25.2,187.3 24.2,232.7" fill="rgb(120,120,120)" stroke="#666" stroke-width="0.5"/>
<polygon points="23.0,187.3 23.0,232.7 21.6,232.7" fill="rgb(120,120,120)" stroke="#666" stroke-width="0.5"/>
<polygon points="24.2,232.7 23.0,187.3 24.2,187.3" fill="rgb(120,120,120)" stroke="#666" stroke-width="0.5"/>
<polygon points="20.3,187.3 19.1,187.3 20.3,232.7" fill="rgb(120,120,120)" stroke="#666" stroke-width="0.5"/>
<polygon points="399.7,187.3 400.9,187.3 399.7,232.7" fill="rgb(120,120,120)" stroke="#666" stroke-width="0.5"/>
<polygon points="402.8,187.3 402.5,187.3 402.8,232.7" fill="rgb(120,120,120)" stroke="#666" stroke-width="0.5"/>
<polygon points="399.7,232.7 398.4,232.7 399.7,187.3" fill="rgb(120,120,120)" stroke="#666" stroke-width="0.5"/>
<polygon points="24.2,187.3 23.0,187.3 24.2,232.7" fill="rgb(120,120,120)" stroke="#666" stroke-width="0.5"/>
<polygon points="24.2,187.3 24.2,232.7 24.7,232.7" fill="rgb(120,120,120)" stroke="#666" stroke-width="0.5"/>
<polygon points="402.5,187.3 402.8,187.3 402.5,232.7" fill="rgb(120,120,120)" stroke="#666" stroke-width="0.5"/>
<polygon points="397.0,187.3 398.4,187.3 397.0,232.7" fill="rgb(120,120,120)" stroke="#666" stroke-width="0.5"/>
<polygon points="395.8,232.7 395.8,187.3 397.0,232.7" fill="rgb(120,120,120)" stroke="#666" stroke-width="0.5"/>
<polygon points="20.3,187.3 20.3,232.7 21.6,232.7" fill="rgb(120,120,120)" stroke="#666" stroke-width="0.5"/>
<polygon points="20.3,187.3 19.1,232.7 19.1,187.3" fill="rgb(120,120,120)" stroke="#666" stroke-width="0.5"/>
<polygon points="395.8,187.3 395.8,232.7 394.8,187.3" fill="rgb(120,120,120)" stroke="#666" stroke-width="0.5"/>
<polygon points="17.5,232.7 17.5,187.3 18.1,232.7" fill="rgb(120,120,120)" stroke="#666" stroke-width="0.5"/>
<polygon points="19.1,232.7 18.6,232.7 18.6,187.3" fill="rgb(120,120,120)" stroke="#666" stroke-width="0.5"/>
<polygon points="19.1,232.7 20.3,232.7 10.0,232.7" fill="rgb(220,220,220)" stroke="#666" stroke-width="0.5"/>
<polygon points="394.8,187.3 394.8,232.7 394.2,187.3" fill="rgb(120,120,120)" stroke="#666" stroke-width="0.5"/>
<polygon points="395.8,232.7 395.8,187.3 394.8,232.7" fill="rgb(120,120,120)" stroke="#666" stroke-width="0.5"/>
<polygon points="400.9,187.3 401.9,232.7 401.9,187.3" fill="rgb(120,120,120)" stroke="#666" stroke-width="0.5"/>
<polygon points="17.5,232.7 17.5,187.3 17.3,232.7" fill="rgb(120,120,120)" stroke="#666" stroke-width="0.5"/>
<polygon points="395.8,232.7 397.0,232.7 395.8,187.3" fill="rgb(120,120,120)" stroke="#666" stroke-width="0.5"/>
<polygon points="19.1,232.7 10.0,232.7 18.6,232.7" fill="rgb(220,220,220)" stroke="#666" stroke-width="0.5"/>
<polygon points="401.9,232.7 402.5,232.7 401.9,187.3" fill="rgb(120,120,120)" stroke="#666" stroke-width="0.5"/>
<polygon points="399.7,187.3 398.4,187.3 399.7,232.7" fill="rgb(120,120,120)" stroke="#666" stroke-width="0.5"/>
<polygon points="18.1,232.7 18.1,187.3 17.5,232.7" fill="rgb(120,120,120)" stroke="#666" stroke-width="0.5"/>
<polygon points="394.2,232.7 394.2,187.3 394.0,232.7" fill="rgb(120,120,120)" stroke="#666" stroke-width="0.5"/>
<polygon points="17.3,232.7 17.5,187.3 17.3,187.3" fill="rgb(120,120,120)" stroke="#666" stroke-width="0.5"/>
<polygon points="402.5,187.3 402.8,232.7 402.8,187.3" fill="rgb(120,120,120)" stroke="#666" stroke-width="0.5"/>
<polygon points="399.7,232.7 400.9,232.7 399.7,187.3" fill="rgb(120,120,120)" stroke="#666" stroke-width="0.5"/>
<polygon points="400.9,187.3 399.7,187.3 400.9,232.7" fill="rgb(120,120,120)" stroke="#666" stroke-width="0.5"/>
<polygon points="19.1,187.3 18.1,232.7 19.1,232.7" fill="rgb(120,120,120)" stroke="#666" stroke-width="0.5"/>
<polygon points="31.2,232.7 25.2,232.7 24.7,232.7" fill="rgb(220,220,220)" stroke="#666" stroke-width="0.5"/>
<polygon points="402.8,232.7 402.5,232.7 402.8,187.3" fill="rgb(120,120,120)" stroke="#666" stroke-width="0.5"/>
<polygon points="400.9,232.7 401.9,232.7 400.9,187.3" fill="rgb(120,120,120)" stroke="#666" stroke-width="0.5"/>
<polygon points="401.9,187.3 400.9,187.3 401.9,232.7" fill="rgb(120,120,120)" stroke="#666" stroke-width="0.5"/>
<polygon points="19.1,232.7 20.3,232.7 19.1,187.3" fill="rgb(120,120,120)" stroke="#666" stroke-width="0.5"/>
<polygon points="25.8,232.7 25.2,232.7 31.2,232.7" fill="rgb(220,220,220)" stroke="#666" stroke-width="0.5"/>
<polygon points="402.5,187.3 401.9,187.3 402.5,232.7" fill="rgb(120,120,120)" stroke="#666" stroke-width="0.5"/>
<polygon points="401.9,232.7 402.5,232.7 401.9,187.3" fill="rgb(120,120,120)" stroke="#666" stroke-width="0.5"/>
<polygon points="394.8,232.7 395.8,232.7 388.8,232.7" fill="rgb(220,220,220)" stroke="#666" stroke-width="0.5"/>
<polygon points="394.2,232.7 394.8,232.7 388.8,232.7" fill="rgb(220,220,220)" stroke="#666" stroke-width="0.5"/>
<polygon points="402.5,232.7 402.8,232.7 402.5,187.3" fill="rgb(120,120,120)" stroke="#666" stroke-width="0.5"/>
<polygon points="26.0,232.7 388.8,232.7 25.8,232.7" fill="rgb(220,220,220)" stroke="#666" stroke-width="0.5"/>
<polygon points="23.0,187.3 21.6,187.3 23.0,232.7" fill="rgb(120,120,120)" stroke="#666" stroke-width="0.5"/>
<polygon points="394.0,232.7 31.2,232.7 394.2,232.7" fill="rgb(220,220,220)" stroke="#666" stroke-width="0.5"/>
<polygon points="402.8,232.7 402.5,232.7 402.8,187.3" fill="rgb(120,120,120)" stroke="#666" stroke-width="0.5"/>
<polygon points="23.0,232.7 24.2,232.7 23.0,187.3" fill="rgb(120,120,120)" stroke="#666" stroke-width="0.5"/>
<polygon points="21.6,232.7 23.0,232.7 21.6,187.3" fill="rgb(120,120,120)" stroke="#666" stroke-width="0.5"/>
<polygon points="23.0,232.7 24.2,232.7 388.8,232.7" fill="rgb(220,220,220)" stroke="#666" stroke-width="0.5"/>
<polygon points="388.8,232.7 10.0,232.7 23.0,232.7" fill="rgb(220,220,220)" stroke="#666" stroke-width="0.5"/>
<polygon points="394.8,232.7 394.2,232.7 388.8,232.7" fill="rgb(220,220,220)" stroke="#666" stroke-width="0.5"/>
<polygon points="395.3,232.7 394.8,232.7 388.8,232.7" fill="rgb(220,220,220)" stroke="#666" stroke-width="0.5"/>
<polygon points="20.3,232.7 21.6,232.7 10.0,232.7" fill="rgb(220,220,220)" stroke="#666" stroke-width="0.5"/>
<polygon points="25.2,187.3 24.7,187.3 25.2,232.7" fill="rgb(120,120,120)" stroke="#666" stroke-width="0.5"/>
<polygon points="399.7,187.3 398.4,187.3 398.4,232.7" fill="rgb(120,120,120)" stroke="#666" stroke-width="0.5"/>
<polygon points="394.0,187.3 394.0,232.7 394.2,187.3" fill="rgb(120,120,120)" stroke="#666" stroke-width="0.5"/>
<polygon points="25.2,232.7 25.8,232.7 388.8,232.7" fill="rgb(220,220,220)" stroke="#666" stroke-width="0.5"/>
<polygon points="26.0,232.7 25.8,232.7 388.8,232.7" fill="rgb(220,220,220)" stroke="#666" stroke-width="0.5"/>
<polygon points="31.2,232.7 388.8,232.7 25.8,232.7" fill="rgb(220,220,220)" stroke="#666" stroke-width="0.5"/>
<polygon points="394.8,187.3 394.2,187.3 394.2,232.7" fill="rgb(120,120,120)" stroke="#666" stroke-width="0.5"/>
<polygon points="398.4,232.7 398.4,187.3 399.7,187.3" fill="rgb(120,120,120)" stroke="#666" stroke-width="0.5"/>
<polygon points="21.6,232.7 23.0,232.7 10.0,232.7" fill="rgb(220,220,220)" stroke="#666" stroke-width="0.5"/>
<polygon points="24.2,232.7 25.2,232.7 388.8,232.7" fill="rgb(220,220,220)" stroke="#666" stroke-width="0.5"/>
<polygon points="25.8,187.3 26.0,232.7 26.0,187.3" fill="rgb(120,120,120)" stroke="#666" stroke-width="0.5"/>
<polygon points="398.4,232.7 397.0,232.7 398.4,187.3" fill="rgb(120,120,120)" stroke="#666" stroke-width="0.5"/>
<polygon points="397.0,232.7 397.0,187.3 395.8,187.3" fill="rgb(120,120,120)" stroke="#666" stroke-width="0.5"/>
<polygon points="25.8,187.3 26.0,187.3 25.8,232.7" fill="rgb(120,120,120)" stroke="#666" stroke-width="0.5"/>
<polygon points="26.0,232.7 25.8,232.7 26.0,187.3" fill="rgb(120,120,120)" stroke="#666" stroke-width="0.5"/>
<polygon points="395.8,232.7 395.8,187.3 397.0,187.3" fill="rgb(120,120,120)" stroke="#666" stroke-width="0.5"/>
<polygon points="398.4,232.7 398.4,187.3 397.0,232.7" fill="rgb(120,120,120)" stroke="#666" stroke-width="0.5"/>
<polygon points="25.8,187.3 25.8,232.7 25.2,187.3" fill="rgb(120,120,120)" stroke="#666" stroke-width="0.5"/>
<polygon points="394.8,187.3 395.8,187.3 395.8,232.7" fill="rgb(120,120,120)" stroke="#666" stroke-width="0.5"/>
<polygon points="394.2,187.3 394.2,232.7 394.0,187.3" fill="rgb(120,120,120)" stroke="#666" stroke-width="0.5"/>
<polygon points="398.4,232.7 399.7,232.7 398.4,187.3" fill="rgb(120,120,120)" stroke="#666" stroke-width="0.5"/>
<polygon points="25.2,232.7 24.2,232.7 25.2,187.3" fill="rgb(120,120,120)" stroke="#666" stroke-width="0.5"/>
<polygon points="402.5,187.3 402.5,232.7 401.9,232.7" fill="rgb(120,120,120)" stroke="#666" stroke-width="0.5"/>
<polygon points="402.5,187.3 401.9,232.7 401.9,187.3" fill="rgb(120,120,120)" stroke="#666" stroke-width="0.5"/>
<polygon points="401.9,232.7 400.9,232.7 401.9,187.3" fill="rgb(120,120,120)" stroke="#666" stroke-width="0.5"/>
<polygon points="400.9,187.3 401.9,187.3 400.9,232.7" fill="rgb(120,120,120)" stroke="#666" stroke-width="0.5"/>
<polygon points="21.6,187.3 23.0,232.7 21.6,232.7" fill="rgb(120,120,120)" stroke="#666" stroke-width="0.5"/>
<polygon points="400.9,232.7 399.7,232.7 400.9,187.3" fill="rgb(120,120,120)" stroke="#666" stroke-width="0.5"/>
<polygon points="20.3,232.7 20.3,187.3 21.6,232.7" fill="rgb(120,120,120)" stroke="#666" stroke-width="0.5"/>
<polygon points="20.3,232.7 20.3,187.3 21.6,232.7" fill="rgb(120,120,120)" stroke="#666" stroke-width="0.5"/>
<polygon points="397.0,187.3 397.0,232.7 398.4,187.3" fill="rgb(120,120,120)" stroke="#666" stroke-width="0.5"/>
<polygon points="397.0,232.7 395.8,187.3 397.0,187.3" fill="rgb(120,120,120)" stroke="#666" stroke-width="0.5"/>
<polygon points="394.8,232.7 394.8,187.3 395.8,232.7" fill="rgb(120,120,120)" stroke="#666" stroke-width="0.5"/>
<polygon points="394.2,232.7 394.2,187.3 394.8,232.7" fill="rgb(120,120,120)" stroke="#666" stroke-width="0.5"/>
<polygon points="17.3,232.7 17.3,187.3 17.5,232.7" fill="rgb(120,120,120)" stroke="#666" stroke-width="0.5"/>
<polygon points="19.1,187.3 19.1,232.7 18.6,187.3" fill="rgb(120,120,120)" stroke="#666" stroke-width="0.5"/>
<polygon points="394.0,232.7 394.0,187.3 394.2,232.7" fill="rgb(120,120,120)" stroke="#666" stroke-width="0.5"/>
<polygon points="18.1,187.3 18.1,232.7 17.5,187.3" fill="rgb(120,120,120)" stroke="#666" stroke-width="0.5"/>
<polygon points="394.8,232.7 394.8,187.3 394.2,232.7" fill="rgb(120,120,120)" stroke="#666" stroke-width="0.5"/>
<polygon points="17.5,187.3 17.5,232.7 17.3,187.3" fill="rgb(120,120,120)" stroke="#666" stroke-width="0.5"/>
<polygon points="394.8,232.7 395.3,232.7 394.8,187.3" fill="rgb(120,120,120)" stroke="#666" stroke-width="0.5"/>
<polygon points="395.8,232.7 395.8,187.3 395.3,232.7" fill="rgb(120,120,120)" stroke="#666" stroke-width="0.5"/>
<polygon points="17.5,187.3 17.5,232.7 18.1,187.3" fill="rgb(120,120,120)" stroke="#666" stroke-width="0.5"/>
<polygon points="19.1,187.3 18.1,187.3 18.1,232.7" fill="rgb(120,120,120)" stroke="#666" stroke-width="0.5"/>
<polygon points="25.2,187.3 25.2,232.7 25.8,232.7" fill="rgb(120,120,120)" stroke="#666" stroke-width="0.5"/>
<polygon points="26.0,187.3 25.8,187.3 26.0,232.7" fill="rgb(120,120,120)" stroke="#666" stroke-width="0.5"/>
<polygon points="400.9,232.7 400.9,187.3 401.4,232.7" fill="rgb(120,120,120)" stroke="#666" stroke-width="0.5"/>
<polygon points="399.7,232.7 398.4,187.3 399.7,187.3" fill="rgb(120,120,120)" stroke="#666" stroke-width="0.5"/>
<polygon points="17.3,187.3 17.3,232.7 17.5,187.3" fill="rgb(120,120,120)" stroke="#666" stroke-width="0.5"/>
<polygon points="17.5,232.7 17.5,187.3 17.3,232.7" fill="rgb(120,120,120)" stroke="#666" stroke-width="0.5"/>
<polygon points="17.5,187.3 17.5,232.7 18.1,187.3" fill="rgb(120,120,120)" stroke="#666" stroke-width="0.5"/>
<polygon points="18.1,232.7 18.1,187.3 17.5,232.7" fill="rgb(120,120,120)" stroke="#666" stroke-width="0.5"/>
<polygon points="19.1,232.7 19.1,187.3 18.1,232.7" fill="rgb(120,120,120)" stroke="#666" stroke-width="0.5"/>
<polygon points="26.0,187.3 26.0,232.7 25.8,232.7" fill="rgb(120,120,120)" stroke="#666" stroke-width="0.5"/>
<polygon points="25.2,187.3 25.8,187.3 25.2,232.7" fill="rgb(120,120,120)" stroke="#666" stroke-width="0.5"/>
<polygon points="25.2,187.3 25.2,232.7 24.2,232.7" fill="rgb(120,120,120)" stroke="#666" stroke-width="0.5"/>
<polygon points="21.6,187.3 21.6,232.7 20.3,187.3" fill="rgb(120,120,120)" stroke="#666" stroke-width="0.5"/>
<polygon points="20.3,187.3 20.3,232.7 19.1,187.3" fill="rgb(120,120,120)" stroke="#666" stroke-width="0.5"/>
<polygon points="19.1,232.7 19.1,187.3 20.3,232.7" fill="rgb(120,120,120)" stroke="#666" stroke-width="0.5"/>
<polygon points="18.1,232.7 18.1,187.3 19.1,232.7" fill="rgb(120,120,120)" stroke="#666" stroke-width="0.5"/>
<polygon points="19.1,187.3 19.1,232.7 18.1,187.3" fill="rgb(120,120,120)" stroke="#666" stroke-width="0.5"/>
<polygon points="17.5,232.7 17.5,187.3 18.1,232.7" fill="rgb(120,120,120)" stroke="#666" stroke-width="0.5"/>
<polygon points="23.0,187.3 21.6,187.3 23.0,232.7" fill="rgb(120,120,120)" stroke="#666" stroke-width="0.5"/>
<polygon points="23.0,187.3 23.0,232.7 24.2,187.3" fill="rgb(120,120,120)" stroke="#666" stroke-width="0.5"/>
<polygon points="24.2,232.7 24.2,187.3 23.0,232.7" fill="rgb(120,120,120)" stroke="#666" stroke-width="0.5"/>
<polygon points="24.2,232.7 25.2,232.7 24.2,187.3" fill="rgb(120,120,120)" stroke="#666" stroke-width="0.5"/>
<polygon points="400.9,187.3 401.4,187.3 401.4,232.7" fill="rgb(120,120,120)" stroke="#666" stroke-width="0.5"/>
<polygon points="400.9,232.7 399.7,232.7 400.9,187.3" fill="rgb(120,120,120)" stroke="#666" stroke-width="0.5"/>
<polygon points="394.8,187.3 395.8,232.7 394.8,232.7" fill="rgb(120,120,120)" stroke="#666" stroke-width="0.5"/>
<polygon points="399.7,187.3 398.4,232.7 399.7,232.7" fill="rgb(120,120,120)" stroke="#666" stroke-width="0.5"/>
<polygon points="400.9,232.7 400.9,187.3 399.7,232.7" fill="rgb(120,120,120)" stroke="#666" stroke-width="0.5"/>
<polygon points="399.7,187.3 399.7,232.7 400.9,187.3" fill="rgb(120,120,120)" stroke="#666" stroke-width="0.5"/>
<polygon points="400.9,187.3 400.9,232.7 401.9,232.7" fill="rgb(120,120,120)" stroke="#666" stroke-width="0.5"/>
<polygon points="402.5,187.3 401.9,187.3 402.5,232.7" fill="rgb(120,120,120)" stroke="#666" stroke-width="0.5"/>
<polygon points="402.5,187.3 402.5,232.7 402.8,232.7" fill="rgb(120,120,120)" stroke="#666" stroke-width="0.5"/>
<polygon points="402.5,187.3 402.8,187.3 402.5,232.7" fill="rgb(120,120,120)" stroke="#666" stroke-width="0.5"/>
<polygon points="401.9,187.3 402.5,187.3 401.9,232.7" fill="rgb(120,120,120)" stroke="#666" stroke-width="0.5"/>
<polygon points="402.5,232.7 401.9,232.7 402.5,187.3" fill="rgb(120,120,120)" stroke="#666" stroke-width="0.5"/>
<polygon points="401.4,187.3 401.9,187.3 401.4,232.7" fill="rgb(120,120,120)" stroke="#666" stroke-width="0.5"/>
<polygon points="399.7,232.7 399.7,187.3 400.9,187.3" fill="rgb(120,120,120)" stroke="#666" stroke-width="0.5"/>
<polygon points="398.4,187.3 399.7,232.7 398.4,232.7" fill="rgb(120,120,120)" stroke="#666" stroke-width="0.5"/>
<polygon points="397.0,232.7 397.0,187.3 398.4,232.7" fill="rgb(120,120,120)" stroke="#666" stroke-width="0.5"/>
<polygon points="398.4,187.3 398.4,232.7 397.0,187.3" fill="rgb(120,120,120)" stroke="#666" stroke-width="0.5"/>
<polygon points="397.0,232.7 395.8,232.7 397.0,187.3" fill="rgb(120,120,120)" stroke="#666" stroke-width="0.5"/>
<polygon points="394.2,232.7 394.2,187.3 394.8,232.7" fill="rgb(120,120,120)" stroke="#666" stroke-width="0.5"/>
<polygon points="394.8,187.3 394.8,232.7 394.2,187.3" fill="rgb(120,120,120)" stroke="#666" stroke-width="0.5"/>
<polygon points="394.2,187.3 394.2,232.7 394.0,187.3" fill="rgb(120,120,120)" stroke="#666" stroke-width="0.5"/>
<polygon points="394.0,232.7 394.0,187.3 394.2,232.7" fill="rgb(120,120,120)" stroke="#666" stroke-width="0.5"/>
<polygon points="394.0,232.7 394.2,232.7 394.0,187.3" fill="rgb(120,120,120)" stroke="#666" stroke-width="0.5"/>
<polygon points="394.2,187.3 394.0,187.3 394.2,232.7" fill="rgb(120,120,120)" stroke="#666" stroke-width="0.5"/>
<polygon points="394.2,232.7 394.8,187.3 394.2,187.3" fill="rgb(120,120,120)" stroke="#666" stroke-width="0.5"/>
<polygon points="395.3,187.3 395.3,232.7 395.8,187.3" fill="rgb(120,120,120)" stroke="#666" stroke-width="0.5"/>
<polygon points="397.0,232.7 397.0,187.3 395.8,232.7" fill="rgb(120,120,120)" stroke="#666" stroke-width="0.5"/>
<polygon points="395.8,187.3 395.8,232.7 397.0,187.3" fill="rgb(120,120,120)" stroke="#666" stroke-width="0.5"/>
<polygon points="398.4,232.7 398.4,187.3 397.0,232.7" fill="rgb(120,120,120)" stroke="#666" stroke-width="0.5"/>
<text x="4" y="416" font-size="10" fill="#999">46.1cm³ ~57.1g PLA | 82x9x110mm</text>
</svg>