<svg xmlns="http://www.w3.org/2000/svg" width="420" height="420" viewBox="0 0 420 420" style="background:#f5f5f5">
<text x="4" y="14" font-size="10" fill="#666">1678 trigger.stl</text>
<polygon points="385.9,137.6 410.0,137.9 318.7,241.3" fill="rgb(255,255,255)" stroke="#666" stroke-width="0.5"/>
<polygon points="318.7,241.3 410.0,137.9 323.8,265.7" fill="rgb(255,255,255)" stroke="#666" stroke-width="0.5"/>
<polygon points="318.7,241.3 323.8,265.7 311.3,252.0" fill="rgb(255,255,255)" stroke="#666" stroke-width="0.5"/>
<polygon points="311.3,252.0 323.8,265.7 315.8,277.2" fill="rgb(255,255,255)" stroke="#666" stroke-width="0.5"/>
<polygon points="311.3,252.0 315.8,277.2 302.3,261.4" fill="rgb(255,255,255)" stroke="#666" stroke-width="0.5"/>
<polygon points="302.3,261.4 315.8,277.2 306.1,287.3" fill="rgb(255,255,255)" stroke="#666" stroke-width="0.5"/>
<polygon points="302.3,261.4 306.1,287.3 291.9,269.2" fill="rgb(255,255,255)" stroke="#666" stroke-width="0.5"/>
<polygon points="291.9,269.2 306.1,287.3 295.0,295.7" fill="rgb(255,255,255)" stroke="#666" stroke-width="0.5"/>
<polygon points="291.9,269.2 295.0,295.7 280.3,275.3" fill="rgb(255,255,255)" stroke="#666" stroke-width="0.5"/>
<polygon points="280.3,275.3 295.0,295.7 282.6,302.2" fill="rgb(255,255,255)" stroke="#666" stroke-width="0.5"/>
<polygon points="280.3,275.3 282.6,302.2 267.9,279.4" fill="rgb(255,255,255)" stroke="#666" stroke-width="0.5"/>
<polygon points="267.9,279.4 282.6,302.2 269.3,306.6" fill="rgb(255,255,255)" stroke="#666" stroke-width="0.5"/>
<polygon points="267.9,279.4 269.3,306.6 255.1,281.5" fill="rgb(255,255,255)" stroke="#666" stroke-width="0.5"/>
<polygon points="255.1,281.5 269.3,306.6 255.5,308.8" fill="rgb(255,255,255)" stroke="#666" stroke-width="0.5"/>
<polygon points="255.1,281.5 255.5,308.8 90.2,294.7" fill="rgb(255,255,255)" stroke="#666" stroke-width="0.5"/>
<polygon points="90.2,294.7 255.5,308.8 90.2,322.1" fill="rgb(255,255,255)" stroke="#666" stroke-width="0.5"/>
<polygon points="90.2,294.7 90.2,322.1 255.1,281.5" fill="rgb(255,255,255)" stroke="#666" stroke-width="0.5"/>
<polygon points="255.1,281.5 90.2,322.1 255.5,308.8" fill="rgb(255,255,255)" stroke="#666" stroke-width="0.5"/>
<polygon points="255.1,281.5 255.5,308.8 267.9,279.4" fill="rgb(255,255,255)" stroke="#666" stroke-width="0.5"/>
<polygon points="267.9,279.4 255.5,308.8 269.3,306.6" fill="rgb(255,255,255)" stroke="#666" stroke-width="0.5"/>
<polygon points="267.9,279.4 269.3,306.6 280.3,275.3" fill="rgb(255,255,255)" stroke="#666" stroke-width="0.5"/>
<polygon points="280.3,275.3 269.3,306.6 282.6,302.2" fill="rgb(255,255,255)" stroke="#666" stroke-width="0.5"/>
<polygon points="280.3,275.3 282.6,302.2 291.9,269.2" fill="rgb(255,255,255)" stroke="#666" stroke-width="0.5"/>
<polygon points="291.9,269.2 282.6,302.2 295.0,295.7" fill="rgb(255,255,255)" stroke="#666" stroke-width="0.5"/>
<polygon points="291.9,269.2 295.0,295.7 302.3,261.4" fill="rgb(255,255,255)" stroke="#666" stroke-width="0.5"/>
<polygon points="302.3,261.4 295.0,295.7 306.1,287.3" fill="rgb(255,255,255)" stroke="#666" stroke-width="0.5"/>
<polygon points="302.3,261.4 306.1,287.3 311.3,252.0" fill="rgb(255,255,255)" stroke="#666" stroke-width="0.5"/>
<polygon points="311.3,252.0 306.1,287.3 315.8,277.2" fill="rgb(255,255,255)" stroke="#666" stroke-width="0.5"/>
<polygon points="311.3,252.0 315.8,277.2 318.7,241.3" fill="rgb(255,255,255)" stroke="#666" stroke-width="0.5"/>
<polygon points="318.7,241.3 315.8,277.2 323.8,265.7" fill="rgb(255,255,255)" stroke="#666" stroke-width="0.5"/>
<polygon points="318.7,241.3 323.8,265.7 385.9,137.6" fill="rgb(255,255,255)" stroke="#666" stroke-width="0.5"/>
<polygon points="385.9,137.6 323.8,265.7 410.0,137.9" fill="rgb(255,255,255)" stroke="#666" stroke-width="0.5"/>
<polygon points="90.2,322.1 90.2,322.1 10.0,322.1" fill="rgb(120,120,120)" stroke="#666" stroke-width="0.5"/>
<polygon points="10.0,322.1 10.0,322.1 90.2,322.1" fill="rgb(120,120,120)" stroke="#666" stroke-width="0.5"/>
<polygon points="255.1,281.5 90.2,294.7 255.1,281.5" fill="rgb(120,120,120)" stroke="#666" stroke-width="0.5"/>
<polygon points="255.1,281.5 90.2,294.7 90.2,294.7" fill="rgb(120,120,120)" stroke="#666" stroke-width="0.5"/>
<polygon points="255.1,281.5 255.1,281.5 267.9,279.4" fill="rgb(120,120,120)" stroke="#666" stroke-width="0.5"/>
<polygon points="267.9,279.4 255.1,281.5 267.9,279.4" fill="rgb(120,120,120)" stroke="#666" stroke-width="0.5"/>
<polygon points="267.9,279.4 267.9,279.4 280.3,275.3" fill="rgb(120,120,120)" stroke="#666" stroke-width="0.5"/>
<polygon points="280.3,275.3 267.9,279.4 280.3,275.3" fill="rgb(120,120,120)" stroke="#666" stroke-width="0.5"/>
<polygon points="280.3,275.3 280.3,275.3 291.9,269.2" fill="rgb(120,120,120)" stroke="#666" stroke-width="0.5"/>
<polygon points="291.9,269.2 280.3,275.3 291.9,269.2" fill="rgb(120,120,120)" stroke="#666" stroke-width="0.5"/>
<polygon points="291.9,269.2 291.9,269.2 302.3,261.4" fill="rgb(120,120,120)" stroke="#666" stroke-width="0.5"/>
<polygon points="302.3,261.4 291.9,269.2 302.3,261.4" fill="rgb(120,120,120)" stroke="#666" stroke-width="0.5"/>
<polygon points="302.3,261.4 302.3,261.4 311.3,252.0" fill="rgb(120,120,120)" stroke="#666" stroke-width="0.5"/>
<polygon points="311.3,252.0 302.3,261.4 311.3,252.0" fill="rgb(120,120,120)" stroke="#666" stroke-width="0.5"/>
<polygon points="311.3,252.0 311.3,252.0 318.7,241.3" fill="rgb(120,120,120)" stroke="#666" stroke-width="0.5"/>
<polygon points="318.7,241.3 311.3,252.0 318.7,241.3" fill="rgb(120,120,120)" stroke="#666" stroke-width="0.5"/>
<polygon points="318.7,241.3 385.9,137.6 318.7,241.3" fill="rgb(120,120,120)" stroke="#666" stroke-width="0.5"/>
<polygon points="318.7,241.3 385.9,137.6 385.5,138.1" fill="rgb(120,120,120)" stroke="#666" stroke-width="0.5"/>
<polygon points="318.7,241.3 385.5,138.1 385.9,137.6" fill="rgb(120,120,120)" stroke="#666" stroke-width="0.5"/>
<polygon points="410.0,137.9 323.8,265.7 409.7,138.4" fill="rgb(123,123,123)" stroke="#666" stroke-width="0.5"/>
<polygon points="409.7,138.4 323.8,265.7 323.8,265.7" fill="rgb(120,120,120)" stroke="#666" stroke-width="0.5"/>
<polygon points="409.7,138.4 323.8,265.7 410.0,137.9" fill="rgb(123,123,123)" stroke="#666" stroke-width="0.5"/>
<polygon points="323.8,265.7 323.8,265.7 315.8,277.2" fill="rgb(120,120,120)" stroke="#666" stroke-width="0.5"/>
<polygon points="323.8,265.7 315.8,277.2 315.8,277.2" fill="rgb(120,120,120)" stroke="#666" stroke-width="0.5"/>
<polygon points="315.8,277.2 315.8,277.2 306.1,287.3" fill="rgb(120,120,120)" stroke="#666" stroke-width="0.5"/>
<polygon points="315.8,277.2 306.1,287.3 306.1,287.3" fill="rgb(120,120,120)" stroke="#666" stroke-width="0.5"/>
<polygon points="306.1,287.3 306.1,287.3 295.0,295.7" fill="rgb(120,120,120)" stroke="#666" stroke-width="0.5"/>
<polygon points="306.1,287.3 295.0,295.7 295.0,295.7" fill="rgb(120,120,120)" stroke="#666" stroke-width="0.5"/>
<polygon points="295.0,295.7 295.0,295.7 282.6,302.2" fill="rgb(120,120,120)" stroke="#666" stroke-width="0.5"/>
<polygon points="295.0,295.7 282.6,302.2 282.6,302.2" fill="rgb(120,120,120)" stroke="#666" stroke-width="0.5"/>
<polygon points="282.6,302.2 282.6,302.2 269.3,306.6" fill="rgb(120,120,120)" stroke="#666" stroke-width="0.5"/>
<polygon points="282.6,302.2 269.3,306.6 269.3,306.6" fill="rgb(120,120,120)" stroke="#666" stroke-width="0.5"/>
<polygon points="269.3,306.6 269.3,306.6 255.5,308.8" fill="rgb(120,120,120)" stroke="#666" stroke-width="0.5"/>
<polygon points="269.3,306.6 255.5,308.8 255.5,308.8" fill="rgb(120,120,120)" stroke="#666" stroke-width="0.5"/>
<polygon points="90.2,322.1 255.5,308.8 90.2,322.1" fill="rgb(120,120,120)" stroke="#666" stroke-width="0.5"/>
<polygon points="90.2,322.1 255.5,308.8 255.5,308.8" fill="rgb(120,120,120)" stroke="#666" stroke-width="0.5"/>
<polygon points="409.7,138.4 410.0,137.9 401.7,119.9" fill="rgb(149,149,149)" stroke="#666" stroke-width="0.5"/>
<polygon points="401.7,119.9 401.6,120.4 409.7,138.4" fill="rgb(137,137,137)" stroke="#666" stroke-width="0.5"/>
<polygon points="410.0,137.9 385.9,137.6 394.9,119.5" fill="rgb(255,255,255)" stroke="#666" stroke-width="0.5"/>
<polygon points="394.9,119.5 401.7,119.9 410.0,137.9" fill="rgb(255,255,255)" stroke="#666" stroke-width="0.5"/>
<polygon points="385.5,138.1 385.9,137.6 394.9,119.6" fill="rgb(121,121,121)" stroke="#666" stroke-width="0.5"/>
<polygon points="394.9,119.6 394.9,120.1 385.5,138.1" fill="rgb(129,129,129)" stroke="#666" stroke-width="0.5"/>
<polygon points="410.0,137.9 409.7,138.4 401.6,120.4" fill="rgb(148,148,148)" stroke="#666" stroke-width="0.5"/>
<polygon points="401.6,120.4 401.7,119.9 410.0,137.9" fill="rgb(137,137,137)" stroke="#666" stroke-width="0.5"/>
<polygon points="266.0,256.2 266.0,256.2 231.2,238.9" fill="rgb(120,120,120)" stroke="#666" stroke-width="0.5"/>
<polygon points="153.0,159.2 148.0,136.7 148.0,136.7" fill="rgb(120,120,120)" stroke="#666" stroke-width="0.5"/>
<polygon points="266.0,256.2 231.2,238.9 231.2,238.9" fill="rgb(120,120,120)" stroke="#666" stroke-width="0.5"/>
<polygon points="231.2,238.9 231.2,238.9 202.6,220.5" fill="rgb(120,120,120)" stroke="#666" stroke-width="0.5"/>
<polygon points="231.2,238.9 202.6,220.5 202.6,220.5" fill="rgb(120,120,120)" stroke="#666" stroke-width="0.5"/>
<polygon points="202.6,220.5 202.6,220.5 180.2,201.1" fill="rgb(120,120,120)" stroke="#666" stroke-width="0.5"/>
<polygon points="202.6,220.5 180.2,201.1 180.2,201.1" fill="rgb(120,120,120)" stroke="#666" stroke-width="0.5"/>
<polygon points="180.2,201.1 180.2,201.1 163.8,180.8" fill="rgb(120,120,120)" stroke="#666" stroke-width="0.5"/>
<polygon points="180.2,201.1 163.8,180.8 163.8,180.8" fill="rgb(120,120,120)" stroke="#666" stroke-width="0.5"/>
<polygon points="163.8,180.8 163.8,180.8 153.0,159.2" fill="rgb(120,120,120)" stroke="#666" stroke-width="0.5"/>
<polygon points="163.8,180.8 153.0,159.2 153.0,159.2" fill="rgb(120,120,120)" stroke="#666" stroke-width="0.5"/>
<polygon points="153.0,159.2 153.0,159.2 148.0,136.7" fill="rgb(120,120,120)" stroke="#666" stroke-width="0.5"/>
<polygon points="153.0,159.2 148.0,136.7 148.0,136.7" fill="rgb(120,120,120)" stroke="#666" stroke-width="0.5"/>
<polygon points="217.3,136.7 217.3,136.7 219.7,161.1" fill="rgb(120,120,120)" stroke="#666" stroke-width="0.5"/>
<polygon points="217.3,136.7 219.7,161.1 217.3,136.7" fill="rgb(120,120,120)" stroke="#666" stroke-width="0.5"/>
<polygon points="217.3,136.7 219.7,161.1 219.7,161.1" fill="rgb(120,120,120)" stroke="#666" stroke-width="0.5"/>
<polygon points="219.7,161.1 219.7,161.1 228.3,184.6" fill="rgb(120,120,120)" stroke="#666" stroke-width="0.5"/>
<polygon points="219.7,161.1 228.3,184.6 228.3,184.6" fill="rgb(120,120,120)" stroke="#666" stroke-width="0.5"/>
<polygon points="228.3,184.6 228.3,184.6 242.8,206.8" fill="rgb(120,120,120)" stroke="#666" stroke-width="0.5"/>
<polygon points="228.3,184.6 242.8,206.8 242.8,206.8" fill="rgb(120,120,120)" stroke="#666" stroke-width="0.5"/>
<polygon points="242.8,206.8 242.8,206.8 263.2,228.0" fill="rgb(120,120,120)" stroke="#666" stroke-width="0.5"/>
<polygon points="242.8,206.8 263.2,228.0 263.2,228.0" fill="rgb(120,120,120)" stroke="#666" stroke-width="0.5"/>
<polygon points="263.2,228.0 263.2,228.0 289.6,248.4" fill="rgb(120,120,120)" stroke="#666" stroke-width="0.5"/>
<polygon points="263.2,228.0 289.6,248.4 289.6,248.4" fill="rgb(120,120,120)" stroke="#666" stroke-width="0.5"/>
<polygon points="289.6,248.4 289.6,248.4 266.0,256.2" fill="rgb(120,120,120)" stroke="#666" stroke-width="0.5"/>
<polygon points="289.6,248.4 266.0,256.2 266.0,256.2" fill="rgb(120,120,120)" stroke="#666" stroke-width="0.5"/>
<polygon points="263.2,228.0 231.2,238.9 289.6,248.4" fill="rgb(255,255,255)" stroke="#666" stroke-width="0.5"/>
<polygon points="289.6,248.4 231.2,238.9 266.0,256.2" fill="rgb(255,255,255)" stroke="#666" stroke-width="0.5"/>
<polygon points="217.3,136.7 148.0,136.7 219.7,161.1" fill="rgb(255,255,255)" stroke="#666" stroke-width="0.5"/>
<polygon points="219.7,161.1 148.0,136.7 153.0,159.2" fill="rgb(255,255,255)" stroke="#666" stroke-width="0.5"/>
<polygon points="219.7,161.1 153.0,159.2 228.3,184.6" fill="rgb(255,255,255)" stroke="#666" stroke-width="0.5"/>
<polygon points="228.3,184.6 153.0,159.2 163.8,180.8" fill="rgb(255,255,255)" stroke="#666" stroke-width="0.5"/>
<polygon points="228.3,184.6 163.8,180.8 242.8,206.8" fill="rgb(255,255,255)" stroke="#666" stroke-width="0.5"/>
<polygon points="242.8,206.8 163.8,180.8 180.2,201.1" fill="rgb(255,255,255)" stroke="#666" stroke-width="0.5"/>
<polygon points="242.8,206.8 180.2,201.1 263.2,228.0" fill="rgb(255,255,255)" stroke="#666" stroke-width="0.5"/>
<polygon points="263.2,228.0 180.2,201.1 202.6,220.5" fill="rgb(255,255,255)" stroke="#666" stroke-width="0.5"/>
<polygon points="263.2,228.0 202.6,220.5 231.2,238.9" fill="rgb(255,255,255)" stroke="#666" stroke-width="0.5"/>
<polygon points="148.0,136.7 217.3,136.7 153.0,159.2" fill="rgb(255,255,255)" stroke="#666" stroke-width="0.5"/>
<polygon points="153.0,159.2 217.3,136.7 219.7,161.1" fill="rgb(255,255,255)" stroke="#666" stroke-width="0.5"/>
<polygon points="153.0,159.2 219.7,161.1 163.8,180.8" fill="rgb(255,255,255)" stroke="#666" stroke-width="0.5"/>
<polygon points="163.8,180.8 219.7,161.1 228.3,184.6" fill="rgb(255,255,255)" stroke="#666" stroke-width="0.5"/>
<polygon points="163.8,180.8 228.3,184.6 180.2,201.1" fill="rgb(255,255,255)" stroke="#666" stroke-width="0.5"/>
<polygon points="180.2,201.1 228.3,184.6 242.8,206.8" fill="rgb(255,255,255)" stroke="#666" stroke-width="0.5"/>
<polygon points="180.2,201.1 242.8,206.8 202.6,220.5" fill="rgb(255,255,255)" stroke="#666" stroke-width="0.5"/>
<polygon points="202.6,220.5 242.8,206.8 263.2,228.0" fill="rgb(255,255,255)" stroke="#666" stroke-width="0.5"/>
<polygon points="202.6,220.5 263.2,228.0 231.2,238.9" fill="rgb(255,255,255)" stroke="#666" stroke-width="0.5"/>
<polygon points="231.2,238.9 263.2,228.0 289.6,248.4" fill="rgb(255,255,255)" stroke="#666" stroke-width="0.5"/>
<polygon points="231.2,238.9 289.6,248.4 266.0,256.2" fill="rgb(255,255,255)" stroke="#666" stroke-width="0.5"/>
<polygon points="148.0,136.7 217.3,136.7 188.6,98.4" fill="rgb(255,255,255)" stroke="#666" stroke-width="0.5"/>
<polygon points="188.6,98.4 177.2,98.4 148.0,136.7" fill="rgb(255,255,255)" stroke="#666" stroke-width="0.5"/>
<polygon points="90.2,294.7 90.2,322.1 10.0,322.1" fill="rgb(255,255,255)" stroke="#666" stroke-width="0.5"/>
<polygon points="10.0,322.1 10.0,294.7 90.2,294.7" fill="rgb(255,255,255)" stroke="#666" stroke-width="0.5"/>
<polygon points="90.2,294.7 90.2,294.7 10.0,294.7" fill="rgb(120,120,120)" stroke="#666" stroke-width="0.5"/>
<polygon points="10.0,294.7 10.0,294.7 90.2,294.7" fill="rgb(120,120,120)" stroke="#666" stroke-width="0.5"/>
<polygon points="90.2,322.1 90.2,294.7 10.0,294.7" fill="rgb(255,255,255)" stroke="#666" stroke-width="0.5"/>
<polygon points="10.0,294.7 10.0,322.1 90.2,322.1" fill="rgb(255,255,255)" stroke="#666" stroke-width="0.5"/>
<polygon points="148.0,136.7 148.0,136.7 177.2,98.4" fill="rgb(120,120,120)" stroke="#666" stroke-width="0.5"/>
<polygon points="177.2,98.4 177.2,98.4 148.0,136.7" fill="rgb(120,120,120)" stroke="#666" stroke-width="0.5"/>
<polygon points="148.0,136.7 148.0,136.7 177.2,98.4" fill="rgb(120,120,120)" stroke="#666" stroke-width="0.5"/>
<polygon points="177.2,98.4 177.2,98.4 148.0,136.7" fill="rgb(120,120,120)" stroke="#666" stroke-width="0.5"/>
<polygon points="217.3,136.7 148.0,136.7 177.2,98.4" fill="rgb(255,255,255)" stroke="#666" stroke-width="0.5"/>
<polygon points="177.2,98.4 188.6,98.4 217.3,136.7" fill="rgb(255,255,255)" stroke="#666" stroke-width="0.5"/>
<polygon points="217.3,136.7 217.3,136.7 188.6,98.4" fill="rgb(120,120,120)" stroke="#666" stroke-width="0.5"/>
<polygon points="188.6,98.4 188.6,98.4 217.3,136.7" fill="rgb(120,120,120)" stroke="#666" stroke-width="0.5"/>
<polygon points="217.3,136.7 217.3,136.7 188.6,98.4" fill="rgb(120,120,120)" stroke="#666" stroke-width="0.5"/>
<polygon points="188.6,98.4 188.6,98.4 217.3,136.7" fill="rgb(120,120,120)" stroke="#666" stroke-width="0.5"/>
<polygon points="10.0,306.1 10.0,322.1 10.0,294.7" fill="rgb(120,120,120)" stroke="#666" stroke-width="0.5"/>
<polygon points="10.0,306.1 10.0,322.1 10.0,322.1" fill="rgb(120,120,120)" stroke="#666" stroke-width="0.5"/>
<polygon points="10.0,306.1 10.0,294.7 10.0,294.7" fill="rgb(120,120,120)" stroke="#666" stroke-width="0.5"/>
<polygon points="10.0,306.1 10.0,294.7 10.0,322.1" fill="rgb(120,120,120)" stroke="#666" stroke-width="0.5"/>
<polygon points="188.6,98.4 188.6,97.9 188.6,98.4" fill="rgb(120,120,120)" stroke="#666" stroke-width="0.5"/>
<polygon points="188.6,97.9 177.2,97.9 188.6,98.4" fill="rgb(255,255,255)" stroke="#666" stroke-width="0.5"/>
<polygon points="188.6,98.4 177.2,97.9 177.2,98.4" fill="rgb(168,168,168)" stroke="#666" stroke-width="0.5"/>
<polygon points="177.2,97.9 177.2,98.4 177.2,98.4" fill="rgb(120,120,120)" stroke="#666" stroke-width="0.5"/>
<polygon points="177.2,98.4 177.2,97.9 177.2,98.4" fill="rgb(120,120,120)" stroke="#666" stroke-width="0.5"/>
<polygon points="177.2,97.9 188.6,97.9 177.2,98.4" fill="rgb(255,255,255)" stroke="#666" stroke-width="0.5"/>
<polygon points="177.2,98.4 188.6,97.9 188.6,98.4" fill="rgb(168,168,168)" stroke="#666" stroke-width="0.5"/>
<polygon points="188.6,97.9 188.6,98.4 188.6,98.4" fill="rgb(120,120,120)" stroke="#666" stroke-width="0.5"/>
<polygon points="177.2,97.9 183.5,98.4 177.2,98.4" fill="rgb(135,135,135)" stroke="#666" stroke-width="0.5"/>
<polygon points="177.2,98.4 183.5,98.4 177.2,97.9" fill="rgb(158,158,158)" stroke="#666" stroke-width="0.5"/>
<polygon points="177.2,97.9 188.6,97.9 183.5,98.4" fill="rgb(149,149,149)" stroke="#666" stroke-width="0.5"/>
<polygon points="183.5,98.4 188.6,97.9 188.6,98.4" fill="rgb(156,156,156)" stroke="#666" stroke-width="0.5"/>
<polygon points="183.5,98.4 188.6,98.4 188.6,97.9" fill="rgb(156,156,156)" stroke="#666" stroke-width="0.5"/>
<polygon points="183.5,98.4 188.6,97.9 177.2,97.9" fill="rgb(142,142,142)" stroke="#666" stroke-width="0.5"/>
<polygon points="401.7,119.9 394.9,119.5 394.9,120.1" fill="rgb(155,155,155)" stroke="#666" stroke-width="0.5"/>
<polygon points="401.7,119.9 394.9,120.1 401.6,120.4" fill="rgb(136,136,136)" stroke="#666" stroke-width="0.5"/>
<polygon points="401.6,120.4 394.9,120.1 394.9,119.6" fill="rgb(154,154,154)" stroke="#666" stroke-width="0.5"/>
<polygon points="401.6,120.4 394.9,119.6 401.7,119.9" fill="rgb(136,136,136)" stroke="#666" stroke-width="0.5"/>
<polygon points="385.9,137.6 385.5,138.1 394.9,120.1" fill="rgb(121,121,121)" stroke="#666" stroke-width="0.5"/>
<polygon points="394.9,120.1 394.9,119.5 385.9,137.6" fill="rgb(129,129,129)" stroke="#666" stroke-width="0.5"/>
<polygon points="385.9,137.6 410.0,137.9 401.7,119.9" fill="rgb(255,255,255)" stroke="#666" stroke-width="0.5"/>
<polygon points="401.7,119.9 394.9,119.6 385.9,137.6" fill="rgb(255,255,255)" stroke="#666" stroke-width="0.5"/>
<text x="4" y="416" font-size="10" fill="#999">3.0cm³ ~3.7g PLA | 69x39x5mm</text>
</svg>