<svg xmlns="http://www.w3.org/2000/svg" width="420" height="420" viewBox="0 0 420 420" style="background:#f5f5f5">
<text x="4" y="14" font-size="10" fill="#666">934 tinycard_preview_Tanks_v3.stl</text>
<polygon points="179.9,11.1 241.6,11.1 178.4,11.1" fill="rgb(120,120,120)" stroke="#666" stroke-width="0.5"/>
<polygon points="179.9,272.7 179.9,11.1 179.9,11.1" fill="rgb(255,255,255)" stroke="#666" stroke-width="0.5"/>
<polygon points="179.9,11.1 179.9,11.1 179.9,11.1" fill="rgb(255,255,255)" stroke="#666" stroke-width="0.5"/>
<polygon points="179.9,11.1 179.9,11.1 179.9,11.1" fill="rgb(255,255,255)" stroke="#666" stroke-width="0.5"/>
<polygon points="179.9,11.1 179.9,11.1 179.9,11.1" fill="rgb(120,120,120)" stroke="#666" stroke-width="0.5"/>
<polygon points="179.9,11.1 179.9,11.1 179.9,410.0" fill="rgb(255,255,255)" stroke="#666" stroke-width="0.5"/>
<polygon points="179.9,11.1 179.9,11.1 180.0,11.1" fill="rgb(120,120,120)" stroke="#666" stroke-width="0.5"/>
<polygon points="179.9,11.1 179.9,11.1 179.9,11.1" fill="rgb(120,120,120)" stroke="#666" stroke-width="0.5"/>
<polygon points="179.9,11.1 179.9,11.1 179.9,11.1" fill="rgb(120,120,120)" stroke="#666" stroke-width="0.5"/>
<polygon points="179.9,11.1 179.9,11.1 179.9,11.1" fill="rgb(120,120,120)" stroke="#666" stroke-width="0.5"/>
<polygon points="179.9,11.1 179.9,11.1 178.9,11.1" fill="rgb(255,255,255)" stroke="#666" stroke-width="0.5"/>
<polygon points="179.9,11.1 179.9,11.1 179.9,11.1" fill="rgb(120,120,120)" stroke="#666" stroke-width="0.5"/>
<polygon points="179.9,11.1 179.7,11.1 179.9,11.1" fill="rgb(142,142,142)" stroke="#666" stroke-width="0.5"/>
<polygon points="179.9,11.1 179.9,11.1 179.9,11.1" fill="rgb(255,255,255)" stroke="#666" stroke-width="0.5"/>
<polygon points="180.0,11.1 179.9,11.1 179.9,11.1" fill="rgb(120,120,120)" stroke="#666" stroke-width="0.5"/>
<polygon points="189.7,11.1 179.9,385.5 179.9,11.1" fill="rgb(120,120,120)" stroke="#666" stroke-width="0.5"/>
<polygon points="179.9,11.1 179.9,11.1 179.9,11.1" fill="rgb(201,201,201)" stroke="#666" stroke-width="0.5"/>
<polygon points="179.9,11.1 179.9,11.1 179.9,11.1" fill="rgb(255,255,255)" stroke="#666" stroke-width="0.5"/>
<polygon points="179.9,11.1 179.9,11.1 179.9,11.5" fill="rgb(255,255,255)" stroke="#666" stroke-width="0.5"/>
<polygon points="179.9,11.1 179.9,11.1 179.9,11.1" fill="rgb(120,120,120)" stroke="#666" stroke-width="0.5"/>
<polygon points="179.9,11.1 179.9,11.1 179.9,11.1" fill="rgb(255,255,255)" stroke="#666" stroke-width="0.5"/>
<polygon points="179.9,11.6 179.9,11.1 179.9,11.1" fill="rgb(120,120,120)" stroke="#666" stroke-width="0.5"/>
<polygon points="179.9,11.1 179.9,11.1 179.9,11.1" fill="rgb(120,120,120)" stroke="#666" stroke-width="0.5"/>
<polygon points="179.9,11.1 179.9,11.1 179.9,11.1" fill="rgb(120,120,120)" stroke="#666" stroke-width="0.5"/>
<polygon points="179.9,11.1 179.9,11.1 179.9,11.1" fill="rgb(120,120,120)" stroke="#666" stroke-width="0.5"/>
<polygon points="180.0,11.1 179.9,11.1 179.9,11.1" fill="rgb(120,120,120)" stroke="#666" stroke-width="0.5"/>
<polygon points="179.9,11.1 179.9,11.1 179.9,11.1" fill="rgb(120,120,120)" stroke="#666" stroke-width="0.5"/>
<polygon points="179.9,11.1 179.9,11.1 179.9,11.1" fill="rgb(255,255,255)" stroke="#666" stroke-width="0.5"/>
<polygon points="179.9,11.1 179.9,11.1 179.9,11.1" fill="rgb(120,120,120)" stroke="#666" stroke-width="0.5"/>
<polygon points="179.9,11.1 180.0,11.1 179.9,11.1" fill="rgb(255,255,255)" stroke="#666" stroke-width="0.5"/>
<polygon points="179.9,11.1 179.9,11.1 179.9,11.1" fill="rgb(120,120,120)" stroke="#666" stroke-width="0.5"/>
<polygon points="179.9,11.1 179.9,11.1 179.9,11.1" fill="rgb(120,120,120)" stroke="#666" stroke-width="0.5"/>
<polygon points="179.9,11.1 179.9,11.1 179.9,11.1" fill="rgb(255,255,255)" stroke="#666" stroke-width="0.5"/>
<polygon points="179.9,11.1 179.9,11.1 179.9,11.1" fill="rgb(255,255,255)" stroke="#666" stroke-width="0.5"/>
<polygon points="179.9,74.4 179.9,10.4 179.9,11.1" fill="rgb(255,255,255)" stroke="#666" stroke-width="0.5"/>
<polygon points="179.9,11.1 179.9,11.1 179.9,11.1" fill="rgb(120,120,120)" stroke="#666" stroke-width="0.5"/>
<polygon points="179.9,11.1 179.9,11.1 179.9,11.1" fill="rgb(255,255,255)" stroke="#666" stroke-width="0.5"/>
<polygon points="179.9,11.1 179.9,11.1 179.9,11.1" fill="rgb(255,255,255)" stroke="#666" stroke-width="0.5"/>
<polygon points="179.9,11.1 179.9,11.1 179.9,11.1" fill="rgb(120,120,120)" stroke="#666" stroke-width="0.5"/>
<polygon points="179.9,11.1 179.9,11.1 179.9,11.1" fill="rgb(120,120,120)" stroke="#666" stroke-width="0.5"/>
<polygon points="179.9,11.1 179.9,11.1 179.9,11.1" fill="rgb(120,120,120)" stroke="#666" stroke-width="0.5"/>
<polygon points="224.0,11.1 179.9,11.0 179.9,10.0" fill="rgb(255,255,255)" stroke="#666" stroke-width="0.5"/>
<polygon points="179.9,11.1 179.9,11.1 179.9,11.1" fill="rgb(255,255,255)" stroke="#666" stroke-width="0.5"/>
<polygon points="179.9,160.4 179.9,11.1 179.9,11.1" fill="rgb(255,255,255)" stroke="#666" stroke-width="0.5"/>
<polygon points="179.9,11.1 179.9,11.1 179.9,11.1" fill="rgb(120,120,120)" stroke="#666" stroke-width="0.5"/>
<polygon points="179.9,11.1 179.9,11.1 179.9,11.1" fill="rgb(120,120,120)" stroke="#666" stroke-width="0.5"/>
<polygon points="179.9,11.1 179.9,11.1 179.9,11.1" fill="rgb(255,255,255)" stroke="#666" stroke-width="0.5"/>
<text x="4" y="416" font-size="10" fill="#999">10139551784769761444530062723981304513755974815335514069776313093141117289304965865111698582536192.0cm³ ~12573044213114504342988284982871901262640370241603452027960662536443385536536002183590403524001792.0g PLA | 26885889178470444155889042847359303680x170140618920197236341149780918465986560x323240897175098245909935953518304165888mm</text>
</svg>