<?xml version="1.0" encoding="UTF-8"?>
<svg viewBox="0 0 24 24" fill="currentColor"><path d="M10.59,13.41C11,13.8 11,14.4 10.59,14.81C10.2,15.2 9.6,15.2 9.19,14.81L7.05,12.67L9.19,10.53C9.6,10.12 10.2,10.12 10.59,10.53C11,10.9 11,11.5 10.59,11.91L9.67,12.84L10.59,13.41M13.41,13.41L14.33,12.43L13.41,11.91C13,11.5 13,10.9 13.41,10.53C13.8,10.12 14.4,10.12 14.81,10.53L16.95,12.67L14.81,14.81C14.4,15.2 13.8,15.2 13.41,14.81C13,14.4 13,13.8 13.41,13.41M12,2A10,10 0 0,1 22,12A10,10 0 0,1 12,22A10,10 0 0,1 2,12A10,10 0 0,1 12,2Z"/></svg>