<?xml version="1.0" encoding="UTF-8"?>
<svg viewBox="0 0 24 24" fill="currentColor"><path d="M22,3H2C0.91,3.04 0.04,3.91 0,5V19C0.04,20.09 0.91,20.96 2,21H22C23.09,20.96 23.96,20.09 24,19V5C23.96,3.91 23.09,3.04 22,3M22,19H2V5H22V19M14,17V15.5C14,14.11 16.79,13.5 18.5,13.5C19.22,13.5 20.08,13.63 21,13.93V15.75C20.52,15.5 19.68,15.25 18.5,15.25C16.79,15.25 15.5,15.88 15.5,16.5V17H14M7.5,7A2.5,2.5 0 0,1 10,9.5A2.5,2.5 0 0,1 7.5,12A2.5,2.5 0 0,1 5,9.5A2.5,2.5 0 0,1 7.5,7M18.5,7A2.5,2.5 0 0,1 21,9.5A2.5,2.5 0 0,1 18.5,12A2.5,2.5 0 0,1 16,9.5A2.5,2.5 0 0,1 18.5,7Z"/></svg>