<?xml version="1.0" encoding="UTF-8"?>
<svg xmlns="http://www.w3.org/2000/svg" viewBox="0 0 512 512"><path d="M288 288h-64v-64h64v64zm0-128h-64V96h64v64zM128 256c0 35.3 28.7 64 64 64h16v48h-16c-35.3 0-64 28.7-64 64h352c0-35.3-28.7-64-64-64h-16v-48h16c35.3 0 64-28.7 64-64H128zM96 224h16v16H96v-16zm400 16h-16v-16h16v16zm-64 0h-16v-16h16v16zm-192-96h16v16h-16v-16zm64 0h16v16h-16v-16zm64 0h16v16h-16v-16zm64 0h16v16h-16v-16zm-64 96h16v16h-16v-16zm64 0h16v16h-16v-16zm64 0h16v16h-16v-16zm-192 96h16v16h-16v-16zm64 0h16v16h-16v-16zm64 0h16v16h-16v-16z"/></svg>