<?xml version="1.0" encoding="UTF-8"?>
<svg xmlns="http://www.w3.org/2000/svg" viewBox="0 0 512 512"><path d="M256 0C114.6 0 0 114.6 0 256s114.6 256 256 256 256-114.6 256-256S397.4 0 256 0zm163.9 220.2l-39.7-10.8c-11.8-3.2-22.5-9.2-31.3-17.3-8.7-8-16.4-17.5-22.5-28.3L301.2 113c-8.1-14.3-22.9-23-38.7-23h-13c-15.8 0-30.7 8.8-38.7 23l-25.2 50.7c-6 10.8-13.8 20.3-22.5 28.3-8.8 8.1-19.6 14.1-31.3 17.3l-39.7 10.8c-16.3 4.4-27.8 19.2-27.8 36.2V280c0 17 11.4 31.8 27.8 36.2l39.7 10.8c11.8 3.2 22.5 9.2 31.3 17.3 8.7 8 16.4 17.5 22.5 28.3l25.2 50.7c8.1 14.3 22.9 23 38.7 23h13c15.8 0 30.7-8.8 38.7-23l25.2-50.7c6-10.8 13.8-20.3 22.5-28.3 8.8-8.1 19.6-14.1 31.3-17.3l39.7-10.8c16.3-4.4 27.8-19.2 27.8-36.2v-23.6c.1-17-11.3-31.8-27.7-36.2zM448 280c0 4.3-2.9 8-7 9.1l-39.7 10.8c-16.8 4.6-32.3 13.2-44.8 24.8-12.4 11.5-23.4 25.1-32.2 40.5l-25.2 50.7c-2 3.6-5.8 5.8-9.8 5.8h-13c-4 0-7.8-2.2-9.8-5.8l-25.2-50.7c-8.7-15.5-19.7-29-32.2-40.5-12.5-11.5-28-20.2-44.8-24.8l-39.7-10.8c-4.1-1.1-7-4.8-7-9.1v-23.6c0-4.3 2.9-8 7-9.1l39.7-10.8c16.8-4.6 32.3-13.2 44.8-24.8 12.4-11.5 23.4-25.1 32.2-40.5l25.2-50.7c2-3.6 5.8-5.8 9.8-5.8h13c4 0 7.8 2.2 9.8 5.8l25.2 50.7c8.7 15.5 19.7 29 32.2 40.5 12.5 11.5 28 20.2 44.8 24.8l39.7 10.8c4.1 1.1 7 4.8 7 9.1V280zm-96-76c0 33.1-26.9 60-60 60s-60-26.9-60-60 26.9-60 60-60 60 26.9 60 60z"/></svg>