<?xml version="1.0" encoding="UTF-8"?>
<svg xmlns="http://www.w3.org/2000/svg" viewBox="0 0 512 512">
  <path d="M216.29 158.39H95.39C86.95 158.39 80 165.34 80 173.78v53.33c0 8.44 6.95 15.39 15.39 15.39h120.9c8.44 0 15.39-6.95 15.39-15.39v-53.33c0-8.44-6.95-15.39-15.39-15.39zm0 106.78H95.39C86.95 265.17 80 272.12 80 280.56v53.33c0 8.44 6.95 15.39 15.39 15.39h120.9c8.44 0 15.39-6.95 15.39-15.39v-53.33c0-8.44-6.95-15.39-15.39-15.39zm188.22-53.39c8.44 0 15.39-6.95 15.39-15.39V173.78c0-8.44-6.95-15.39-15.39-15.39H283.61c-8.44 0-15.39 6.95-15.39 15.39v53.33c0 8.44 6.95 15.39 15.39 15.39h120.9zM432 32H80c-26.51 0-48 21.49-48 48v352c0 26.51 21.49 48 48 48h352c26.51 0 48-21.49 48-48V80c0-26.51-21.49-48-48-48z"/>
</svg>