<?xml version="1.0" encoding="UTF-8"?>
<svg xmlns="http://www.w3.org/2000/svg" viewBox="0 0 640 512">
  <path d="M616 160h-8c-66.4 0-121.7-48.3-132.5-112H160v-8c0-13.3-10.7-24-24-24s-24 10.7-24 24v8H24c-13.3 0-24 10.7-24 24v144c0 13.3 10.7 24 24 24h8c0 96.6 78.8 175.4 175.4 175.4 53.2 0 101.2-24 133.5-61.8 32.3 37.8 80.3 61.8 133.5 61.8 96.6 0 175.4-78.8 175.4-175.4h8c13.3 0 24-10.7 24-24V184c.2-13.3-10.5-24-23.8-24zM207.4 368c-70.1 0-127.4-57.3-127.4-127.4 0-70.1 57.3-127.4 127.4-127.4 70.1 0 127.4 57.3 127.4 127.4 0 70.1-57.3 127.4-127.4 127.4zm255.4-127.4c0 70.1-57.3 127.4-127.4 127.4s-127.4-57.3-127.4-127.4c0-70.1 57.3-127.4 127.4-127.4 70.1 0 127.4 57.3 127.4 127.4z"/>
</svg>