<?xml version="1.0" encoding="UTF-8"?>
<svg xmlns="http://www.w3.org/2000/svg" viewBox="0 0 512 512"><path d="M96 96c0-35.3 28.7-64 64-64s64 28.7 64 64c0 35.3-28.7 64-64 64s-64-28.7-64-64zm224 0c0-35.3 28.7-64 64-64s64 28.7 64 64c0 35.3-28.7 64-64 64s-64-28.7-64-64zM224 256c0-35.3 28.7-64 64-64s64 28.7 64 64c0 35.3-28.7 64-64 64s-64-28.7-64-64zM96 416c0-35.3 28.7-64 64-64s64 28.7 64 64c0 35.3-28.7 64-64 64s-64-28.7-64-64zm224 0c0-35.3 28.7-64 64-64s64 28.7 64 64c0 35.3-28.7 64-64 64s-64-28.7-64-64z"/></svg>