<?xml version="1.0" encoding="UTF-8"?>
<svg xmlns="http://www.w3.org/2000/svg" viewBox="0 0 512 512">
  <path d="M501.1 395.7L384 278.6c-23.1-23.1-57.6-27.6-85.4-13.9L192 158.1V96L64 0 0 64l96 128h62.1l106.6 106.6c-13.6 27.8-9.2 62.3 13.9 85.4l117.1 117.1c14.6 14.6 38.2 14.6 52.7 0l52.7-52.7c14.5-14.6 14.5-38.2 0-52.7zM331.7 225c28.3 0 54.9 11 74.9 31l19.4 19.4c15.8-6.9 30.8-16.5 43.8-29.5 37.1-37.1 37.1-97.3 0-134.4-37.1-37.1-97.3-37.1-134.4 0-13 13-22.6 28-29.5 43.8l19.4 19.4c20.1-21 46.7-32.1 75-32.1-17.5 17.5-28.9 15.5-17.5 26.9 27.4 27.4 27.4 71.9 0 99.3s-71.9 27.4-99.3 0c-11.4-11.4-9.4-0 26.9-17.5z"/>
</svg>