<?xml version="1.0" encoding="UTF-8"?>
<svg viewBox="0 0 24 24" fill="currentColor"><path d="M4,1H20A1,1 0 0,1 21,2V6A1,1 0 0,1 20,7H4A1,1 0 0,1 3,6V2A1,1 0 0,1 4,1M4,9H20A1,1 0 0,1 21,10V14A1,1 0 0,1 20,15H4A1,1 0 0,1 3,14V10A1,1 0 0,1 4,9M4,17H20A1,1 0 0,1 21,18V22A1,1 0 0,1 20,23H4A1,1 0 0,1 3,22V18A1,1 0 0,1 4,17M6,4.5V4.5A1.5,1.5 0 0,1 7.5,3A1.5,1.5 0 0,1 9,4.5A1.5,1.5 0 0,1 7.5,6A1.5,1.5 0 0,1 6,4.5M6,12.5V12.5A1.5,1.5 0 0,1 7.5,11A1.5,1.5 0 0,1 9,12.5A1.5,1.5 0 0,1 7.5,14A1.5,1.5 0 0,1 6,12.5M6,20.5V20.5A1.5,1.5 0 0,1 7.5,19A1.5,1.5 0 0,1 9,20.5A1.5,1.5 0 0,1 7.5,22A1.5,1.5 0 0,1 6,20.5Z"/></svg>