<?xml version="1.0" encoding="UTF-8"?>
<svg xmlns="http://www.w3.org/2000/svg" viewBox="0 0 512 512"><path d="M208 132h288c8.8 0 16-7.2 16-16V76c0-8.8-7.2-16-16-16H208c-8.8 0-16 7.2-16 16v40c0 8.8 7.2 16 16 16zm0 160h288c8.8 0 16-7.2 16-16v-40c0-8.8-7.2-16-16-16H208c-8.8 0-16 7.2-16 16v40c0 8.8 7.2 16 16 16zm0 160h288c8.8 0 16-7.2 16-16v-40c0-8.8-7.2-16-16-16H208c-8.8 0-16 7.2-16 16v40c0 8.8 7.2 16 16 16zM64 368c-26.5 0-48 21.5-48 48s21.5 48 48 48 48-21.5 48-48-21.5-48-48-48zm0-160c-26.5 0-48 21.5-48 48s21.5 48 48 48 48-21.5 48-48-21.5-48-48-48zm0-160c-26.5 0-48 21.5-48 48s21.5 48 48 48 48-21.5 48-48-21.5-48-48-48z"/></svg>