<?xml version="1.0" encoding="UTF-8"?>
<svg xmlns="http://www.w3.org/2000/svg" viewBox="0 0 640 512">
  <path d="M622.34 153.2L343.4 67.5c-15.2-4.67-31.6-4.67-46.79 0L17.66 153.2c-23.54 7.23-23.54 38.36 0 45.59l48.63 14.94c-10.67 13.19-17.23 29.28-17.23 46.9v119.12c0 77.42 71.65 143.25 162.94 143.25s162.94-65.83 162.94-143.25V260.63c0-17.62-6.56-33.71-17.23-46.9l48.63-14.94c23.54-7.23 23.54-38.36 0-45.59zM320 320c-88.37 0-160-57.31-160-128s71.63-128 160-128 160 57.31 160 128-71.63 128-160 128zm-32-128c0 8.84 7.16 16 16 16s16-7.16 16-16-7.16-16-16-16-16 7.16-16 16z"/>
</svg>