<?xml version="1.0" encoding="UTF-8"?>
<svg viewBox="0 0 24 24" fill="currentColor"><path d="M12 2C13.1 2 14 2.9 14 4C14 5.1 13.1 6 12 6C10.9 6 10 5.1 10 4C10 2.9 10.9 2 12 2ZM21 9V7L15 1H5C3.9 1 3 1.9 3 3V17C3 18.1 3.9 19 5 19H9C9 20.1 9.9 21 11 21H15C16.1 21 17 20.1 17 19C17 17.9 16.1 17 15 17H11C9.9 17 9 17.9 9 19H5V3H14V8C14 8.6 14.4 9 15 9H21ZM19 9H16V6L19 9ZM12 8C15.3 8 18 10.7 18 14V16H18.5C19.3 16 20 16.7 20 17.5S19.3 19 18.5 19H5.5C4.7 19 4 18.3 4 17.5S4.7 16 5.5 16H6V14C6 10.7 8.7 8 12 8Z"/></svg>