<?xml version="1.0" encoding="UTF-8"?>
<svg xmlns="http://www.w3.org/2000/svg" viewBox="0 0 640 512"><path d="M320 32c-8.1 0-16.1 1.4-23.7 4.1L15.8 137.4C6.3 140.9 0 149.9 0 160s6.3 19.1 15.8 22.6l57.9 20.9C57.3 229.3 48 259.8 48 291.9v28.1c0 28.4-10.8 57.7-22.3 80.8-6.5 13-13.9 25.8-22.5 37.6-3.2 4.3-4.1 9.9-2.3 15 1.7 5.1 6.1 9 11.4 10l81.9 18.9c5.5 1.2 11.1-.6 14.9-4.9 20.6-23.8 51.9-56.5 73.9-56.5 22.1 0 43.4 19.5 62.5 39.5 2.7 2.9 6.6 4.5 10.6 4.5s7.9-1.6 10.6-4.5c15.6-16.6 36.1-38.5 62.5-38.5s46.8 21.8 73.9 56.5c3.8 4.3 9.3 6.2 14.9 4.9l81.9-18.9c5.3-1.2 9.6-4.9 11.4-10 1.8-5.1.9-10.7-2.3-15-8.6-11.8-16-24.6-22.5-37.6-11.5-23-22.3-52.3-22.3-80.8v-28.1c0-32.1-9.3-62.6-25.7-88.4l57.9-20.9c9.5-3.4 15.8-12.5 15.8-22.6s-6.3-19.1-15.8-22.6L343.7 36.1C336.1 33.4 328.1 32 320 32zM128 408c0 35.3 86 72 192 72s192-36.7 192-72L496 288c0-35.3-86-72-192-72s-192 36.7-192 72l16 120zm168-88c37.9 0 69.3 5.3 93.3 14.7 23.7 9.4 38.7 22.3 38.7 37.3s-15 28-38.7 37.3c-24 9.4-55.4 14.7-93.3 14.7s-69.3-5.3-93.3-14.7c-23.7-9.4-38.7-22.3-38.7-37.3s15-28 38.7-37.3c24-9.4 55.4-14.7 93.3-14.7z"/></svg>